<svg width="32" height="32" viewBox="0 0 32 32" fill="none" xmlns="http://www.w3.org/2000/svg">
<path d="M28.9725 23.4158C29.6777 21.9823 30.0292 20.4006 29.9976 18.8033C29.9659 17.206 29.552 15.6395 28.7906 14.2351C28.0291 12.8306 26.9422 11.629 25.6209 10.731C24.2996 9.83289 22.7824 9.26446 21.1962 9.07328C20.6681 7.85 19.9008 6.7446 18.9394 5.82202C17.9781 4.89944 16.842 4.17829 15.598 3.70092C14.3541 3.22355 13.0272 2.99961 11.6955 3.04223C10.3637 3.08485 9.05394 3.39318 7.84303 3.94912C6.63212 4.50505 5.54453 5.29737 4.64413 6.27954C3.74373 7.2617 3.04869 8.4139 2.59984 9.66845C2.15099 10.923 1.95739 12.2546 2.03039 13.585C2.1034 14.9155 2.44155 16.2179 3.02497 17.4158L2.06747 20.7683C1.993 21.0286 1.97997 21.3027 2.0294 21.569C2.07884 21.8352 2.18939 22.0864 2.35235 22.3027C2.51532 22.5189 2.72625 22.6944 2.96856 22.8154C3.21086 22.9363 3.47792 22.9993 3.74872 22.9995C3.91112 23 4.07275 22.9773 4.22872 22.932L7.58122 21.9745C8.59249 22.4744 9.68206 22.797 10.8025 22.9283C11.3359 24.1776 12.1182 25.3051 13.1017 26.2421C14.0853 27.179 15.2494 27.9058 16.5231 28.378C17.7968 28.8502 19.1533 29.058 20.5099 28.9886C21.8666 28.9192 23.1948 28.5742 24.4137 27.9745L27.7662 28.932C28.0661 29.0175 28.3835 29.0212 28.6853 28.9429C28.9872 28.8645 29.2626 28.7069 29.4831 28.4864C29.7036 28.2659 29.8612 27.9905 29.9396 27.6886C30.0179 27.3868 30.0142 27.0695 29.9287 26.7695L28.9725 23.4158ZM8.16872 20.0258C7.93943 19.9006 7.67023 19.8701 7.41872 19.9408L4.11747 20.8845L5.06122 17.5833C5.13195 17.3318 5.10144 17.0626 4.97622 16.8333C3.94453 14.9791 3.69167 12.791 4.27327 10.7504C4.85486 8.70974 6.22328 6.98372 8.07747 5.95203C9.93167 4.92034 12.1198 4.66748 14.1604 5.24907C16.201 5.83067 17.927 7.19909 18.9587 9.05328C16.5012 9.3136 14.2268 10.4733 12.5727 12.3094C10.9187 14.1455 10.0019 16.5283 9.99872 18.9995C9.99914 19.5991 10.054 20.1974 10.1625 20.787C9.46658 20.6244 8.79591 20.3683 8.16872 20.0258ZM26.94 23.5833L27.8837 26.8845L24.5825 25.9408C24.331 25.8701 24.0618 25.9006 23.8325 26.0258C22.1444 26.9453 20.1815 27.2257 18.3035 26.8156C16.4255 26.4055 14.7581 25.3324 13.607 23.793C12.4558 22.2535 11.8979 20.3508 12.0356 18.4335C12.1732 16.5162 12.9971 14.7127 14.3564 13.3534C15.7156 11.9942 17.5191 11.1702 19.4364 11.0326C21.3538 10.895 23.2565 11.4529 24.7959 12.604C26.3354 13.7552 27.4085 15.4225 27.8185 17.3005C28.2286 19.1786 27.9482 21.1414 27.0287 22.8295C26.9012 23.0594 26.8694 23.3301 26.94 23.5833ZM17.9987 17.4995C17.9987 17.7962 17.9107 18.0862 17.7459 18.3329C17.5811 18.5796 17.3468 18.7718 17.0727 18.8853C16.7987 18.9989 16.4971 19.0286 16.2061 18.9707C15.9151 18.9128 15.6478 18.77 15.4381 18.5602C15.2283 18.3504 15.0854 18.0831 15.0275 17.7922C14.9697 17.5012 14.9994 17.1996 15.1129 16.9255C15.2264 16.6514 15.4187 16.4171 15.6654 16.2523C15.912 16.0875 16.2021 15.9995 16.4987 15.9995C16.8965 15.9995 17.2781 16.1576 17.5594 16.4389C17.8407 16.7202 17.9987 17.1017 17.9987 17.4995ZM24.9987 17.4995C24.9987 17.7962 24.9107 18.0862 24.7459 18.3329C24.5811 18.5796 24.3468 18.7718 24.0727 18.8853C23.7987 18.9989 23.4971 19.0286 23.2061 18.9707C22.9151 18.9128 22.6478 18.77 22.4381 18.5602C22.2283 18.3504 22.0854 18.0831 22.0275 17.7922C21.9697 17.5012 21.9994 17.1996 22.1129 16.9255C22.2264 16.6514 22.4187 16.4171 22.6654 16.2523C22.912 16.0875 23.202 15.9995 23.4987 15.9995C23.8965 15.9995 24.2781 16.1576 24.5594 16.4389C24.8407 16.7202 24.9987 17.1017 24.9987 17.4995Z" fill="white"/>
</svg>
