<svg width="9" height="14" viewBox="0 0 9 14" fill="none" xmlns="http://www.w3.org/2000/svg">
<path d="M3.25754 7.00018L8.20754 11.9502C8.30305 12.0424 8.37923 12.1528 8.43164 12.2748C8.48405 12.3968 8.51163 12.528 8.51279 12.6608C8.51394 12.7936 8.48864 12.9252 8.43836 13.0481C8.38808 13.171 8.31382 13.2827 8.21993 13.3766C8.12604 13.4705 8.01439 13.5447 7.89149 13.595C7.76859 13.6453 7.63691 13.6706 7.50414 13.6694C7.37136 13.6683 7.24014 13.6407 7.11813 13.5883C6.99613 13.5359 6.88578 13.4597 6.79354 13.3642L1.13654 7.70718C0.949065 7.51965 0.84375 7.26535 0.84375 7.00018C0.84375 6.73502 0.949065 6.48071 1.13654 6.29318L6.79354 0.636181C6.98214 0.454022 7.23474 0.353228 7.49694 0.355507C7.75913 0.357785 8.00995 0.462954 8.19535 0.648362C8.38076 0.83377 8.48593 1.08458 8.48821 1.34678C8.49049 1.60898 8.38969 1.86158 8.20754 2.05018L3.25754 7.00018Z" fill="#6E6E74"/>
</svg>
