<svg width="164" height="35" viewBox="0 0 164 35" fill="none" xmlns="http://www.w3.org/2000/svg">
<path d="M27.0547 18.9922C27.2369 19.0266 27.4241 19.0857 27.5965 19.1497C27.4241 19.0808 27.2369 19.0316 27.0547 18.9922Z" fill="#ED1EFF"/>
<path d="M29.6643 5.30095L29.6545 5.29111C29.615 5.25172 29.5756 5.20741 29.5313 5.16803C29.5313 5.16803 29.5313 5.15818 29.5165 5.15326C29.3442 5.01049 29.1176 4.92188 28.8713 4.92188C28.3099 4.92188 27.8617 5.3748 27.8617 5.93603V6.03941C27.8765 6.21664 27.8765 6.40372 27.8765 6.58587C27.8765 12.464 23.1138 17.2296 17.2332 17.2296C11.3525 17.2296 6.58495 12.464 6.58495 6.58587C6.58495 6.40864 6.58495 6.23634 6.59973 6.06403C6.59973 6.02957 6.60958 5.9951 6.60958 5.96064C6.60958 5.9508 6.60958 5.94587 6.60958 5.93603C6.60958 5.3748 6.15646 4.92188 5.59499 4.92188C5.35366 4.92188 5.13203 5.01049 4.95472 5.14834C4.95472 5.14834 4.95472 5.14834 4.94487 5.14834C4.89562 5.20249 4.84144 5.25172 4.79219 5.3108C1.82231 8.40249 0 12.6019 0 17.2296C0 26.7459 7.71774 34.4603 17.2332 34.4603C26.7486 34.4603 34.4663 26.7459 34.4663 17.2296C34.4663 12.592 32.6391 8.39264 29.6643 5.29603V5.30095ZM27.9208 26.6326C25.8916 27.5729 23.4783 26.6966 22.5327 24.6683C21.587 22.6351 22.4686 20.2228 24.4978 19.2776C25.0494 19.0216 25.6355 18.8985 26.2068 18.8985C26.4925 18.8985 26.7782 18.933 27.054 18.992C27.2362 19.0265 27.4233 19.0856 27.5957 19.1496C27.9011 19.2579 28.1868 19.4006 28.4576 19.5877C28.5512 19.6419 28.6399 19.7059 28.7236 19.7797C28.7925 19.8289 28.8566 19.8831 28.9206 19.952C28.96 19.9816 28.9994 20.016 29.0339 20.0554C29.0684 20.0899 29.1028 20.1243 29.1324 20.1588C29.2358 20.2622 29.3294 20.3705 29.423 20.4886C29.6003 20.72 29.7579 20.976 29.8859 21.2517C30.8316 23.28 29.9549 25.6973 27.9208 26.6425V26.6326Z" fill="white"/>
<path d="M23.8155 6.592C23.8155 10.2302 20.8702 13.1791 17.2305 13.1791C13.5908 13.1791 10.6406 10.2302 10.6406 6.592C10.6406 3.06708 13.4135 0.187077 16.8907 0.00984638C17.0039 2.25581e-07 17.1221 0 17.2305 0C17.3389 0 17.4571 2.25581e-07 17.5703 0.00984638C21.0524 0.182154 23.8155 3.06708 23.8155 6.592Z" fill="white"/>
<path d="M56.1577 23.354V26.17C56.1577 26.7116 55.7144 27.1546 55.1726 27.1546H42.8991C42.3573 27.1546 41.9141 26.7116 41.9141 26.17V8.15649C41.9141 7.61495 42.3573 7.17188 42.8991 7.17188H54.9165C55.4583 7.17188 55.9015 7.61495 55.9015 8.15649V10.9725C55.9015 11.514 55.4583 11.9571 54.9165 11.9571H47.4007V14.7731H53.6754C54.2171 14.7731 54.6604 15.2162 54.6604 15.7577V18.234C54.6604 18.7756 54.2171 19.2186 53.6754 19.2186H47.4007V22.3694H55.1677C55.7095 22.3694 56.1527 22.8125 56.1527 23.354H56.1577Z" fill="white"/>
<path d="M80.7417 27.1546H77.3631C76.8213 27.1546 76.378 26.7115 76.378 26.1699V19.0266C76.378 18.3127 76.2303 17.7958 75.9397 17.4758C75.6491 17.1558 75.2945 16.9933 74.8857 16.9933C74.4769 16.9933 74.0238 17.1853 73.5362 17.5693C73.0486 17.9533 72.694 18.4456 72.4674 19.0512V26.165C72.4674 26.7066 72.0242 27.1496 71.4824 27.1496H68.1037C67.562 27.1496 67.1187 26.7066 67.1187 26.165V19.0216C67.1187 18.3078 66.9709 17.7909 66.6804 17.4709C66.3898 17.1509 66.0401 16.9884 65.6264 16.9884C65.2127 16.9884 64.7645 17.1755 64.2769 17.5496C63.7893 17.9238 63.4347 18.4013 63.2081 18.9872V26.165C63.2081 26.7066 62.7648 27.1496 62.2231 27.1496H58.8444C58.3026 27.1496 57.8594 26.7066 57.8594 26.165V13.5275C57.8594 12.9859 58.3026 12.5429 58.8444 12.5429H61.6862C62.228 12.5429 62.6713 12.9859 62.6713 13.5275V14.7533C63.1983 13.9607 63.9173 13.3552 64.8383 12.9416C65.7593 12.5281 66.8478 12.3213 68.1037 12.3213C69.3596 12.3213 70.2413 12.5823 70.8618 13.0943C71.4824 13.6112 71.8912 14.1921 72.098 14.837C72.625 14.0444 73.3441 13.4241 74.2651 12.981C75.1861 12.5379 76.2155 12.3164 77.3631 12.3164C78.3382 12.3164 79.1164 12.4936 79.6976 12.8432C80.2787 13.1927 80.7171 13.6456 81.0077 14.197C81.2983 14.7484 81.4903 15.3293 81.5839 15.925C81.6775 16.5256 81.7218 17.0721 81.7218 17.5743V26.165C81.7218 26.7066 81.2786 27.1496 80.7368 27.1496L80.7417 27.1546Z" fill="white"/>
<path d="M91.1146 27.4381C89.7996 27.4381 88.6373 27.2362 87.6227 26.8276C86.6081 26.4239 85.761 25.8627 85.0764 25.1538C84.3918 24.4448 83.8746 23.6375 83.5299 22.7316C83.1802 21.8258 83.0078 20.8756 83.0078 19.8811C83.0078 18.8867 83.1802 17.9316 83.5299 17.0159C83.8746 16.1002 84.3918 15.2928 85.0764 14.5938C85.761 13.8947 86.613 13.3384 87.6227 12.9347C88.6373 12.531 89.7996 12.3242 91.1146 12.3242C92.4297 12.3242 93.6166 12.5261 94.6214 12.9347C95.6261 13.3384 96.4683 13.8947 97.1529 14.5938C97.8375 15.2928 98.3546 16.1002 98.6994 17.0159C99.0491 17.9316 99.2215 18.8867 99.2215 19.8811C99.2215 20.8756 99.0491 21.8258 98.6994 22.7316C98.3497 23.6375 97.8375 24.4448 97.1529 25.1538C96.4683 25.8627 95.6212 26.4239 94.6214 26.8276C93.6166 27.2313 92.4494 27.4381 91.1146 27.4381ZM88.4994 19.8811C88.4994 20.5113 88.6127 21.0578 88.8392 21.5156C89.0658 21.9735 89.3761 22.3279 89.7701 22.5691C90.1641 22.8104 90.6123 22.9334 91.1196 22.9334C91.6269 22.9334 92.0751 22.8104 92.4691 22.5691C92.8631 22.3279 93.1734 21.9735 93.3999 21.5156C93.6265 21.0578 93.7398 20.5113 93.7398 19.8811C93.7398 19.251 93.6265 18.7045 93.3999 18.2467C93.1734 17.7888 92.8631 17.4344 92.4691 17.1931C92.0751 16.9519 91.6269 16.8288 91.1196 16.8288C90.6123 16.8288 90.1641 16.9519 89.7701 17.1931C89.3761 17.4344 89.0658 17.7888 88.8392 18.2467C88.6127 18.7045 88.4994 19.251 88.4994 19.8811Z" fill="white"/>
<path d="M100.374 16.9699C100.374 15.749 100.606 14.5527 101.064 13.381C101.522 12.2093 102.192 11.1459 103.078 10.1859C103.96 9.23085 105.033 8.46285 106.299 7.89177C107.565 7.3207 108.998 7.03516 110.589 7.03516C112.505 7.03516 114.174 7.43393 115.598 8.23146C116.716 8.85669 117.607 9.63947 118.277 10.5847C118.583 11.0179 118.459 11.6235 118.026 11.9336L115.519 13.7158C115.076 14.0308 114.445 13.9521 114.135 13.509C113.958 13.2579 113.756 13.0413 113.524 12.8641C113.066 12.5096 112.569 12.2585 112.032 12.1158C111.495 11.973 110.978 11.9041 110.471 11.9041C109.683 11.9041 109.003 12.0567 108.432 12.3668C107.86 12.677 107.393 13.0856 107.023 13.5927C106.659 14.0998 106.383 14.661 106.206 15.2813C106.028 15.9016 105.94 16.5219 105.94 17.1373C105.94 17.8315 106.043 18.4961 106.25 19.1361C106.457 19.7761 106.757 20.3422 107.151 20.8395C107.545 21.3367 108.028 21.7256 108.599 22.0062C109.171 22.2869 109.816 22.4296 110.525 22.4296C111.032 22.4296 111.549 22.3508 112.071 22.1884C112.598 22.0308 113.076 21.7699 113.505 21.4155C113.716 21.2432 113.904 21.0364 114.066 20.805C114.362 20.3767 114.933 20.2487 115.381 20.5145L118.174 22.1835C118.656 22.4739 118.794 23.1041 118.494 23.5767C118.115 24.1675 117.612 24.6992 116.997 25.1619C116.076 25.8561 115.036 26.3878 113.874 26.7521C112.712 27.1164 111.554 27.2985 110.412 27.2985C108.929 27.2985 107.575 27.0032 106.343 26.4124C105.112 25.8216 104.053 25.0339 103.162 24.0493C102.27 23.0647 101.581 21.957 101.093 20.7262C100.606 19.4955 100.359 18.245 100.359 16.9699H100.374Z" fill="white"/>
<path d="M119.742 22.763C119.742 21.7882 120.013 20.9218 120.56 20.1784C121.102 19.4301 121.86 18.8442 122.825 18.4209C123.791 17.9975 124.894 17.7858 126.135 17.7858C126.716 17.7858 127.268 17.835 127.78 17.9286C128.297 18.0221 128.74 18.1649 129.115 18.3519V17.9039C129.115 17.2344 128.913 16.7421 128.509 16.4172C128.105 16.0922 127.455 15.9347 126.554 15.9347C125.726 15.9347 124.953 16.0726 124.229 16.3433C123.796 16.5058 123.347 16.7175 122.889 16.9735C122.382 17.2541 121.742 17.067 121.5 16.5402L120.796 15.0338C120.575 14.5612 120.757 13.995 121.215 13.7489C121.968 13.3452 122.747 13.0252 123.554 12.7987C124.653 12.4886 125.83 12.3359 127.086 12.3359C129.43 12.3359 131.247 12.8529 132.533 13.8867C133.818 14.9206 134.459 16.4566 134.459 18.4898V21.291C134.459 21.7833 134.532 22.1279 134.685 22.3199C134.744 22.3987 134.823 22.4627 134.922 22.5119C135.247 22.6892 135.473 22.9895 135.473 23.3587V26.3519C135.473 26.8295 135.128 27.2479 134.656 27.3218C134.518 27.3415 134.38 27.3612 134.252 27.3809C133.868 27.4301 133.523 27.4498 133.222 27.4498C132.267 27.4498 131.538 27.2775 131.041 26.9279C130.543 26.5833 130.218 26.0713 130.07 25.3919L129.957 24.8553C129.302 25.7021 128.539 26.3421 127.677 26.7852C126.815 27.2282 125.894 27.4449 124.919 27.4449C123.943 27.4449 123.062 27.243 122.274 26.8344C121.486 26.4307 120.865 25.8695 120.417 25.1606C119.969 24.4516 119.742 23.6541 119.742 22.7679V22.763ZM128.41 23.0781C128.617 22.9353 128.785 22.7827 128.918 22.6104C129.051 22.443 129.115 22.2707 129.115 22.0935V21.0547C128.814 20.9464 128.47 20.8578 128.085 20.7889C127.701 20.7199 127.357 20.6806 127.056 20.6806C126.416 20.6806 125.879 20.8332 125.436 21.1335C124.992 21.4338 124.776 21.8178 124.776 22.2756C124.776 22.5267 124.85 22.7482 125.002 22.955C125.15 23.1569 125.357 23.3193 125.623 23.4326C125.884 23.5458 126.184 23.6049 126.524 23.6049C126.844 23.6049 127.174 23.5556 127.524 23.4572C127.869 23.3587 128.164 23.2307 128.41 23.0732V23.0781Z" fill="white"/>
<path d="M146.977 12.0703H146.794C145.913 12.0703 145.076 12.3362 144.288 12.8728C143.5 13.4094 142.844 14.1725 142.317 15.1669V13.1682C142.317 12.8285 142.042 12.5479 141.697 12.5479H138.042C137.698 12.5479 137.422 12.8285 137.422 13.1682V26.5343C137.422 26.8789 137.698 27.1546 138.042 27.1546H142.145C142.49 27.1546 142.771 26.8789 142.771 26.5343V18.3719C143.179 17.85 143.81 17.4759 144.652 17.2494C145.332 17.0672 146.066 16.9589 146.859 16.9245C147.198 16.9097 147.469 16.6389 147.469 16.3042V12.5626C147.469 12.2919 147.248 12.0703 146.977 12.0703Z" fill="white"/>
<path d="M155.427 27.4352C154.132 27.4352 152.979 27.2383 151.965 26.8395C150.95 26.4407 150.103 25.8992 149.418 25.2149C148.734 24.5306 148.212 23.7478 147.857 22.8567C147.503 21.9706 147.32 21.0352 147.32 20.0555C147.32 18.6573 147.631 17.3675 148.251 16.2007C148.872 15.029 149.778 14.0887 150.98 13.3798C152.181 12.6709 153.664 12.3164 155.427 12.3164C157.19 12.3164 158.673 12.6659 159.875 13.3699C161.076 14.0739 161.987 14.9946 162.603 16.1416C163.224 17.2887 163.534 18.5343 163.534 19.8832C163.534 20.1589 163.519 20.4444 163.49 20.7299C163.49 20.7299 163.49 20.7349 163.49 20.7398C163.445 21.1681 163.081 21.493 162.647 21.493H153.004C153.043 21.9903 153.186 22.3989 153.442 22.709C153.693 23.0192 154.014 23.2456 154.398 23.3884C154.782 23.5312 155.181 23.6001 155.595 23.6001C156.176 23.6001 156.727 23.4672 157.24 23.2063C157.57 23.0389 157.831 22.8272 158.018 22.5761C158.22 22.3004 158.584 22.2019 158.914 22.2955L161.712 23.093C162.283 23.2555 162.529 23.9496 162.17 24.4223C161.879 24.8063 161.539 25.1607 161.16 25.4856C160.456 26.0863 159.623 26.5589 158.668 26.9084C157.712 27.2579 156.634 27.4303 155.432 27.4303L155.427 27.4352ZM152.896 18.2881H157.791C157.737 17.8303 157.599 17.4413 157.382 17.1263C157.166 16.8112 156.885 16.5601 156.54 16.3878C156.191 16.2106 155.797 16.1219 155.343 16.1219C154.89 16.1219 154.496 16.2106 154.147 16.3878C153.797 16.565 153.516 16.8112 153.304 17.1263C153.088 17.4413 152.955 17.8303 152.896 18.2881Z" fill="white"/>
</svg>
