<svg width="117" height="26" viewBox="0 0 117 26" fill="none" xmlns="http://www.w3.org/2000/svg">
<path d="M19.3594 14.2793C19.4898 14.3043 19.6236 14.3472 19.747 14.3936C19.6236 14.3436 19.4898 14.3079 19.3594 14.2793Z" fill="#ED1EFF"/>
<path d="M21.2231 4.34726L21.216 4.34012C21.1878 4.31155 21.1596 4.27941 21.1279 4.25084C21.1279 4.25084 21.1279 4.24369 21.1174 4.24012C20.994 4.13655 20.8319 4.07227 20.6558 4.07227C20.2541 4.07227 19.9334 4.40084 19.9334 4.80798V4.88298C19.944 5.01155 19.944 5.14726 19.944 5.27941C19.944 9.54369 16.5366 13.0008 12.3293 13.0008C8.12206 13.0008 4.71115 9.54369 4.71115 5.27941C4.71115 5.15084 4.71115 5.02584 4.72172 4.90084C4.72172 4.87584 4.72877 4.85084 4.72877 4.82584C4.72877 4.81869 4.72877 4.81512 4.72877 4.80798C4.72877 4.40084 4.40459 4.07227 4.00289 4.07227C3.83023 4.07227 3.67167 4.13655 3.54481 4.23655C3.54481 4.23655 3.54481 4.23655 3.53777 4.23655C3.50253 4.27584 3.46377 4.31155 3.42853 4.35441C1.30376 6.59726 0 9.64369 0 13.0008C0 19.9044 5.52159 25.5008 12.3293 25.5008C19.1371 25.5008 24.6587 19.9044 24.6587 13.0008C24.6587 9.63655 23.3514 6.59012 21.2231 4.34369V4.34726ZM19.9757 19.8223C18.5239 20.5044 16.7973 19.8687 16.1208 18.3973C15.4443 16.9223 16.075 15.1723 17.5267 14.4866C17.9214 14.3008 18.3407 14.2115 18.7495 14.2115C18.9538 14.2115 19.1582 14.2366 19.3555 14.2794C19.4859 14.3044 19.6198 14.3473 19.7431 14.3937C19.9616 14.4723 20.166 14.5758 20.3598 14.7116C20.4267 14.7508 20.4902 14.7973 20.5501 14.8508C20.5994 14.8865 20.6452 14.9258 20.691 14.9758C20.7192 14.9973 20.7474 15.0223 20.772 15.0508C20.7967 15.0758 20.8214 15.1008 20.8425 15.1258C20.9165 15.2008 20.9835 15.2794 21.0504 15.3651C21.1773 15.533 21.29 15.7187 21.3816 15.9187C22.0582 17.3901 21.431 19.1437 19.9757 19.8294V19.8223Z" fill="white"/>
<path d="M17.043 5.28214C17.043 7.92143 14.9359 10.0607 12.3319 10.0607C9.72787 10.0607 7.61719 7.92143 7.61719 5.28214C7.61719 2.725 9.60101 0.635714 12.0887 0.507143C12.1698 0.5 12.2543 0.5 12.3319 0.5C12.4094 0.5 12.494 0.5 12.575 0.507143C15.0662 0.632143 17.043 2.725 17.043 5.28214Z" fill="#FBB549"/>
<path d="M40.1748 17.4424V19.4853C40.1748 19.8781 39.8577 20.1996 39.4701 20.1996H30.6891C30.3015 20.1996 29.9844 19.8781 29.9844 19.4853V6.41741C29.9844 6.02455 30.3015 5.70312 30.6891 5.70312H39.2869C39.6745 5.70312 39.9916 6.02455 39.9916 6.41741V8.46027C39.9916 8.85312 39.6745 9.17455 39.2869 9.17455H33.9097V11.2174H38.3989C38.7865 11.2174 39.1036 11.5388 39.1036 11.9317V13.7281C39.1036 14.121 38.7865 14.4424 38.3989 14.4424H33.9097V16.7281H39.4666C39.8542 16.7281 40.1713 17.0496 40.1713 17.4424H40.1748Z" fill="white"/>
<path d="M57.7616 20.1998H55.3444C54.9568 20.1998 54.6396 19.8784 54.6396 19.4855V14.3034C54.6396 13.7855 54.5339 13.4105 54.326 13.1784C54.1181 12.9463 53.8644 12.8284 53.572 12.8284C53.2795 12.8284 52.9553 12.9677 52.6065 13.2463C52.2576 13.5248 52.0039 13.882 51.8418 14.3213V19.482C51.8418 19.8748 51.5247 20.1963 51.1371 20.1963H48.7199C48.3323 20.1963 48.0151 19.8748 48.0151 19.482V14.2998C48.0151 13.782 47.9094 13.407 47.7015 13.1748C47.4936 12.9427 47.2434 12.8248 46.9475 12.8248C46.6515 12.8248 46.3308 12.9605 45.982 13.232C45.6331 13.5034 45.3794 13.8498 45.2173 14.2748V19.482C45.2173 19.8748 44.9002 20.1963 44.5126 20.1963H42.0954C41.7078 20.1963 41.3906 19.8748 41.3906 19.482V10.3141C41.3906 9.92126 41.7078 9.59983 42.0954 9.59983H44.1285C44.5161 9.59983 44.8332 9.92126 44.8332 10.3141V11.2034C45.2103 10.6284 45.7247 10.1891 46.3837 9.88912C47.0426 9.58912 47.8213 9.43912 48.7199 9.43912C49.6184 9.43912 50.2491 9.6284 50.6931 9.99983C51.1371 10.3748 51.4296 10.7963 51.5776 11.2641C51.9546 10.6891 52.469 10.2391 53.128 9.91769C53.7869 9.59626 54.5233 9.43555 55.3444 9.43555C56.042 9.43555 56.5988 9.56412 57.0146 9.81769C57.4304 10.0713 57.744 10.3998 57.9519 10.7998C58.1598 11.1998 58.2972 11.6213 58.3642 12.0534C58.4311 12.4891 58.4628 12.8855 58.4628 13.2498V19.482C58.4628 19.8748 58.1457 20.1963 57.7581 20.1963L57.7616 20.1998Z" fill="white"/>
<path d="M65.1828 20.4037C64.242 20.4037 63.4104 20.2573 62.6845 19.9609C61.9586 19.668 61.3525 19.2609 60.8628 18.7466C60.373 18.2323 60.003 17.6466 59.7563 16.9895C59.5061 16.3323 59.3828 15.643 59.3828 14.9216C59.3828 14.2002 59.5061 13.5073 59.7563 12.843C60.003 12.1787 60.373 11.593 60.8628 11.0859C61.3525 10.5787 61.9621 10.1752 62.6845 9.88231C63.4104 9.58945 64.242 9.43945 65.1828 9.43945C66.1236 9.43945 66.9728 9.58588 67.6916 9.88231C68.4105 10.1752 69.013 10.5787 69.5028 11.0859C69.9926 11.593 70.3626 12.1787 70.6092 12.843C70.8594 13.5073 70.9827 14.2002 70.9827 14.9216C70.9827 15.643 70.8594 16.3323 70.6092 16.9895C70.3591 17.6466 69.9926 18.2323 69.5028 18.7466C69.013 19.2609 68.4069 19.668 67.6916 19.9609C66.9728 20.2537 66.1377 20.4037 65.1828 20.4037ZM63.3117 14.9216C63.3117 15.3787 63.3928 15.7752 63.5548 16.1073C63.7169 16.4395 63.9389 16.6966 64.2208 16.8716C64.5027 17.0466 64.8234 17.1359 65.1863 17.1359C65.5492 17.1359 65.8699 17.0466 66.1518 16.8716C66.4337 16.6966 66.6557 16.4395 66.8178 16.1073C66.9799 15.7752 67.0609 15.3787 67.0609 14.9216C67.0609 14.4645 66.9799 14.068 66.8178 13.7359C66.6557 13.4037 66.4337 13.1466 66.1518 12.9716C65.8699 12.7966 65.5492 12.7073 65.1863 12.7073C64.8234 12.7073 64.5027 12.7966 64.2208 12.9716C63.9389 13.1466 63.7169 13.4037 63.5548 13.7359C63.3928 14.068 63.3117 14.4645 63.3117 14.9216Z" fill="white"/>
<path d="M71.8074 12.8107C71.8074 11.9249 71.9731 11.0571 72.3008 10.2071C72.6285 9.35709 73.1077 8.58566 73.7419 7.88923C74.3727 7.19637 75.1408 6.63923 76.0464 6.22494C76.952 5.81066 77.9774 5.60352 79.1155 5.60352C80.4862 5.60352 81.6808 5.8928 82.6991 6.47137C83.499 6.92494 84.1368 7.4928 84.616 8.17852C84.8345 8.4928 84.7464 8.93209 84.4363 9.15709L82.6427 10.4499C82.3256 10.6785 81.8746 10.6214 81.6526 10.2999C81.5257 10.1178 81.3813 9.96066 81.2156 9.83209C80.8879 9.57494 80.5321 9.3928 80.148 9.28923C79.7639 9.18566 79.3939 9.13566 79.031 9.13566C78.4672 9.13566 77.9809 9.24637 77.5722 9.47137C77.1634 9.69637 76.8287 9.9928 76.5644 10.3607C76.3037 10.7285 76.1063 11.1357 75.9795 11.5857C75.8526 12.0357 75.7892 12.4857 75.7892 12.9321C75.7892 13.4357 75.8632 13.9178 76.0112 14.3821C76.1592 14.8464 76.3741 15.2571 76.656 15.6178C76.9379 15.9785 77.2832 16.2607 77.692 16.4642C78.1007 16.6678 78.5623 16.7714 79.0697 16.7714C79.4327 16.7714 79.8027 16.7142 80.1762 16.5964C80.5532 16.4821 80.895 16.2928 81.2016 16.0357C81.3531 15.9107 81.487 15.7607 81.6033 15.5928C81.8147 15.2821 82.2234 15.1892 82.5441 15.3821L84.542 16.5928C84.8873 16.8035 84.986 17.2607 84.771 17.6035C84.4997 18.0321 84.1403 18.4178 83.6998 18.7535C83.0409 19.2571 82.2974 19.6428 81.4658 19.9071C80.6342 20.1714 79.8062 20.3035 78.9887 20.3035C77.9281 20.3035 76.9591 20.0892 76.0781 19.6607C75.1972 19.2321 74.4396 18.6607 73.8018 17.9464C73.1641 17.2321 72.6707 16.4285 72.3219 15.5357C71.9731 14.6428 71.7969 13.7357 71.7969 12.8107H71.8074Z" fill="white"/>
<path d="M85.6641 17.0135C85.6641 16.3064 85.8579 15.6778 86.249 15.1385C86.6366 14.5956 87.1792 14.1706 87.8699 13.8635C88.5605 13.5564 89.3498 13.4028 90.2378 13.4028C90.6536 13.4028 91.0482 13.4385 91.4147 13.5064C91.7847 13.5742 92.1018 13.6778 92.3696 13.8135V13.4885C92.3696 13.0028 92.2251 12.6456 91.9362 12.4099C91.6473 12.1742 91.1821 12.0599 90.5373 12.0599C89.9453 12.0599 89.3921 12.1599 88.8741 12.3564C88.564 12.4742 88.2434 12.6278 87.9157 12.8135C87.5528 13.0171 87.0947 12.8814 86.922 12.4992L86.4181 11.4064C86.2596 11.0635 86.3899 10.6528 86.7176 10.4742C87.2568 10.1814 87.8135 9.94922 88.3914 9.78493C89.1772 9.55993 90.0193 9.44922 90.9179 9.44922C92.5951 9.44922 93.8954 9.82422 94.815 10.5742C95.7347 11.3242 96.1928 12.4385 96.1928 13.9135V15.9456C96.1928 16.3028 96.2457 16.5528 96.3549 16.6921C96.3972 16.7492 96.4535 16.7956 96.524 16.8314C96.7566 16.9599 96.9187 17.1778 96.9187 17.4456V19.6171C96.9187 19.9635 96.672 20.2671 96.3337 20.3206C96.2351 20.3349 96.1364 20.3492 96.0448 20.3635C95.77 20.3992 95.5233 20.4135 95.3084 20.4135C94.6248 20.4135 94.1033 20.2885 93.7474 20.0349C93.3915 19.7849 93.1589 19.4135 93.0532 18.9206L92.9722 18.5314C92.5035 19.1456 91.9573 19.6099 91.3407 19.9314C90.7241 20.2528 90.0651 20.4099 89.3674 20.4099C88.6698 20.4099 88.039 20.2635 87.4752 19.9671C86.9114 19.6742 86.4675 19.2671 86.1468 18.7528C85.8262 18.2385 85.6641 17.6599 85.6641 17.0171V17.0135ZM91.8657 17.2421C92.0137 17.1385 92.1335 17.0278 92.2287 16.9028C92.3238 16.7814 92.3696 16.6564 92.3696 16.5278V15.7742C92.1547 15.6956 91.908 15.6314 91.6332 15.5814C91.3583 15.5314 91.1117 15.5028 90.8967 15.5028C90.4386 15.5028 90.0546 15.6135 89.7374 15.8314C89.4203 16.0492 89.2653 16.3278 89.2653 16.6599C89.2653 16.8421 89.3181 17.0028 89.4274 17.1528C89.5331 17.2992 89.681 17.4171 89.8713 17.4992C90.0581 17.5814 90.273 17.6242 90.5162 17.6242C90.7452 17.6242 90.9813 17.5885 91.2315 17.5171C91.4781 17.4456 91.6895 17.3528 91.8657 17.2385V17.2421Z" fill="white"/>
<path d="M105.148 9.25781H105.018C104.387 9.25781 103.788 9.45067 103.225 9.83996C102.661 10.2292 102.192 10.7828 101.815 11.5042V10.0542C101.815 9.80781 101.618 9.60424 101.371 9.60424H98.7565C98.5098 9.60424 98.3125 9.80781 98.3125 10.0542V19.7507C98.3125 20.0007 98.5098 20.2007 98.7565 20.2007H101.692C101.938 20.2007 102.139 20.0007 102.139 19.7507V13.8292C102.432 13.4507 102.883 13.1792 103.485 13.015C103.972 12.8828 104.497 12.8042 105.064 12.7792C105.307 12.7685 105.501 12.5721 105.501 12.3292V9.61496C105.501 9.41853 105.342 9.25781 105.148 9.25781Z" fill="white"/>
<path d="M111.198 20.4034C110.272 20.4034 109.447 20.2605 108.721 19.9713C107.995 19.682 107.389 19.2891 106.9 18.7927C106.41 18.2963 106.036 17.7284 105.783 17.082C105.529 16.4391 105.398 15.7605 105.398 15.0498C105.398 14.0355 105.62 13.0998 106.064 12.2534C106.508 11.4034 107.157 10.7213 108.017 10.207C108.876 9.69269 109.937 9.43555 111.198 9.43555C112.46 9.43555 113.521 9.68912 114.38 10.1998C115.24 10.7105 115.892 11.3784 116.332 12.2105C116.776 13.0427 116.998 13.9463 116.998 14.9248C116.998 15.1248 116.988 15.332 116.967 15.5391C116.967 15.5391 116.967 15.5427 116.967 15.5463C116.935 15.857 116.674 16.0927 116.364 16.0927H109.465C109.493 16.4534 109.595 16.7498 109.778 16.9748C109.958 17.1998 110.187 17.3641 110.462 17.4677C110.737 17.5713 111.022 17.6213 111.318 17.6213C111.734 17.6213 112.129 17.5248 112.495 17.3355C112.731 17.2141 112.918 17.0605 113.052 16.8784C113.196 16.6784 113.457 16.607 113.693 16.6748L115.695 17.2534C116.103 17.3713 116.28 17.8748 116.022 18.2177C115.814 18.4963 115.571 18.7534 115.3 18.9891C114.796 19.4248 114.201 19.7677 113.517 20.0213C112.833 20.2748 112.062 20.3998 111.202 20.3998L111.198 20.4034ZM109.387 13.7677H112.89C112.851 13.4355 112.752 13.1534 112.597 12.9248C112.442 12.6963 112.241 12.5141 111.995 12.3891C111.745 12.2605 111.463 12.1963 111.139 12.1963C110.814 12.1963 110.532 12.2605 110.282 12.3891C110.032 12.5177 109.831 12.6963 109.68 12.9248C109.525 13.1534 109.43 13.4355 109.387 13.7677Z" fill="white"/>
</svg>
