<?xml version="1.0" encoding="iso-8859-1"?>
<!-- Generator: Adobe Illustrator 27.3.1, SVG Export Plug-In . SVG Version: 6.00 Build 0)  -->
<svg version="1.1" id="Layer_1" xmlns="http://www.w3.org/2000/svg" xmlns:xlink="http://www.w3.org/1999/xlink" x="0px" y="0px"
	 viewBox="0 0 164 35" style="enable-background:new 0 0 164 35;" xml:space="preserve">
<path style="fill:#ED1EFF;" d="M27.051,18.993c0.182,0.034,0.369,0.094,0.542,0.158C27.42,19.081,27.233,19.032,27.051,18.993z"/>
<path style="fill:#0066FF;" d="M29.66,5.302l-0.01-0.01c-0.039-0.039-0.079-0.084-0.123-0.123c0,0,0-0.01-0.015-0.015
	c-0.172-0.143-0.399-0.231-0.645-0.231c-0.561,0-1.01,0.453-1.01,1.014V6.04c0.015,0.177,0.015,0.364,0.015,0.546
	c0,5.878-4.762,10.643-10.642,10.643c-5.88,0-10.647-4.765-10.647-10.643c0-0.177,0-0.35,0.015-0.522c0-0.034,0.01-0.069,0.01-0.103
	c0-0.01,0-0.015,0-0.025c0-0.561-0.453-1.014-1.014-1.014c-0.241,0-0.463,0.089-0.64,0.226c0,0,0,0-0.01,0
	C4.895,5.204,4.841,5.253,4.792,5.312C1.822,8.403,0,12.603,0,17.23c0,9.516,7.717,17.23,17.231,17.23
	c9.514,0,17.231-7.714,17.231-17.23c0-4.637-1.827-8.837-4.802-11.933V5.302z M27.917,26.633c-2.029,0.94-4.442,0.064-5.387-1.964
	c-0.946-2.033-0.064-4.445,1.965-5.391c0.552-0.256,1.138-0.379,1.709-0.379c0.286,0,0.571,0.034,0.847,0.094
	c0.182,0.034,0.369,0.094,0.542,0.158c0.305,0.108,0.591,0.251,0.862,0.438c0.094,0.054,0.182,0.118,0.266,0.192
	c0.069,0.049,0.133,0.103,0.197,0.172c0.039,0.03,0.079,0.064,0.113,0.103c0.035,0.034,0.069,0.069,0.099,0.103
	c0.103,0.103,0.197,0.212,0.291,0.33c0.177,0.231,0.335,0.487,0.463,0.763c0.946,2.028,0.069,4.445-1.965,5.391V26.633z"/>
<path style="fill:#FFC700;" d="M23.815,6.592c0,3.638-2.945,6.587-6.584,6.587s-6.589-2.949-6.589-6.587
	c0-3.525,2.773-6.405,6.249-6.582C17.004,0,17.123,0,17.231,0c0.108,0,0.227,0,0.34,0.01C21.052,0.182,23.815,3.067,23.815,6.592z"
	/>
<path style="fill:#FFD0EC;" d="M27.917,26.633c-2.029,0.94-4.442,0.064-5.387-1.964c-0.946-2.033-0.064-4.445,1.965-5.391
	c0.552-0.256,1.138-0.379,1.709-0.379c0.286,0,0.571,0.034,0.847,0.094c0.182,0.034,0.369,0.094,0.542,0.158
	c0.305,0.108,0.591,0.251,0.862,0.438c0.094,0.054,0.182,0.118,0.266,0.192c0.069,0.049,0.133,0.103,0.197,0.172
	c0.039,0.03,0.079,0.064,0.113,0.103c0.035,0.034,0.069,0.069,0.099,0.103c0.103,0.103,0.197,0.212,0.291,0.33
	c0.177,0.231,0.335,0.487,0.463,0.763c0.946,2.028,0.069,4.445-1.965,5.391V26.633z"/>
<path style="fill:#0066FF;" d="M56.17,23.342v2.816c0,0.542-0.443,0.985-0.985,0.985H42.913c-0.542,0-0.985-0.443-0.985-0.985V8.145
	c0-0.542,0.443-0.985,0.985-0.985h12.016c0.542,0,0.985,0.443,0.985,0.985v2.816c0,0.542-0.443,0.985-0.985,0.985h-7.515v2.816
	h6.274c0.542,0,0.985,0.443,0.985,0.985v2.476c0,0.542-0.443,0.985-0.985,0.985h-6.274v3.151h7.766c0.542,0,0.985,0.443,0.985,0.984
	H56.17z"/>
<path style="fill:#0066FF;" d="M80.748,27.142h-3.378c-0.542,0-0.985-0.443-0.985-0.985v-7.143c0-0.714-0.148-1.231-0.438-1.551
	c-0.291-0.32-0.645-0.482-1.054-0.482c-0.409,0-0.862,0.192-1.349,0.576c-0.488,0.384-0.842,0.876-1.069,1.482v7.114
	c0,0.542-0.443,0.984-0.985,0.984h-3.378c-0.542,0-0.985-0.443-0.985-0.984V19.01c0-0.714-0.148-1.231-0.438-1.551
	c-0.291-0.32-0.64-0.482-1.054-0.482c-0.414,0-0.862,0.187-1.349,0.561c-0.488,0.374-0.842,0.852-1.069,1.437v7.178
	c0,0.542-0.443,0.984-0.985,0.984h-3.378c-0.542,0-0.985-0.443-0.985-0.984V13.516c0-0.542,0.443-0.985,0.985-0.985h2.841
	c0.542,0,0.985,0.443,0.985,0.985v1.226c0.527-0.793,1.246-1.398,2.167-1.812c0.921-0.414,2.009-0.62,3.265-0.62
	c1.256,0,2.137,0.261,2.758,0.773c0.621,0.517,1.029,1.098,1.236,1.743c0.527-0.793,1.246-1.413,2.167-1.856
	c0.921-0.443,1.95-0.665,3.097-0.665c0.975,0,1.753,0.177,2.334,0.527c0.581,0.35,1.019,0.802,1.31,1.354
	c0.291,0.551,0.483,1.132,0.576,1.728c0.093,0.601,0.138,1.147,0.138,1.649v8.59c0,0.542-0.443,0.984-0.985,0.984L80.748,27.142z"/>
<path style="fill:#0066FF;" d="M91.119,27.423c-1.315,0-2.477-0.202-3.491-0.61c-1.014-0.404-1.862-0.965-2.546-1.674
	c-0.685-0.709-1.202-1.516-1.546-2.422c-0.35-0.906-0.522-1.856-0.522-2.85c0-0.994,0.172-1.949,0.522-2.865
	c0.345-0.916,0.862-1.723,1.546-2.422c0.684-0.699,1.536-1.255,2.546-1.659c1.014-0.404,2.177-0.61,3.491-0.61
	c1.315,0,2.502,0.202,3.506,0.61c1.005,0.404,1.847,0.96,2.531,1.659c0.684,0.699,1.202,1.506,1.546,2.422
	c0.35,0.916,0.522,1.871,0.522,2.865c0,0.994-0.172,1.945-0.522,2.85c-0.35,0.906-0.862,1.713-1.546,2.422
	c-0.685,0.709-1.532,1.27-2.531,1.674C93.621,27.216,92.454,27.423,91.119,27.423z M88.504,19.866c0,0.63,0.113,1.177,0.34,1.634
	c0.227,0.458,0.537,0.812,0.931,1.053c0.394,0.241,0.842,0.364,1.349,0.364c0.507,0,0.955-0.123,1.349-0.364
	c0.394-0.241,0.704-0.596,0.931-1.053c0.227-0.458,0.34-1.004,0.34-1.634c0-0.63-0.113-1.177-0.34-1.634
	c-0.227-0.458-0.537-0.812-0.931-1.054s-0.842-0.364-1.349-0.364c-0.507,0-0.955,0.123-1.349,0.364
	c-0.394,0.241-0.704,0.596-0.931,1.054C88.617,18.69,88.504,19.236,88.504,19.866z"/>
<path style="fill:#0066FF;" d="M100.382,16.957c0-1.221,0.231-2.417,0.689-3.589c0.458-1.172,1.128-2.235,2.014-3.195
	c0.882-0.955,1.955-1.723,3.221-2.294c1.266-0.571,2.699-0.857,4.289-0.857c1.916,0,3.585,0.399,5.008,1.196
	c1.118,0.625,2.009,1.408,2.679,2.353c0.305,0.433,0.182,1.039-0.251,1.349l-2.507,1.782c-0.443,0.315-1.074,0.236-1.384-0.207
	c-0.177-0.251-0.379-0.468-0.611-0.645c-0.458-0.354-0.955-0.606-1.492-0.748c-0.537-0.143-1.054-0.212-1.561-0.212
	c-0.788,0-1.468,0.153-2.039,0.463c-0.571,0.31-1.039,0.719-1.408,1.226c-0.364,0.507-0.64,1.068-0.817,1.689
	c-0.177,0.62-0.266,1.241-0.266,1.856c0,0.694,0.103,1.359,0.31,1.999c0.207,0.64,0.507,1.206,0.901,1.703
	c0.394,0.497,0.876,0.886,1.448,1.167c0.571,0.281,1.216,0.423,1.925,0.423c0.507,0,1.024-0.079,1.546-0.241
	c0.527-0.158,1.005-0.419,1.433-0.773c0.212-0.172,0.399-0.379,0.561-0.611c0.296-0.428,0.867-0.556,1.315-0.29l2.792,1.669
	c0.482,0.29,0.621,0.92,0.32,1.393c-0.379,0.591-0.881,1.123-1.497,1.585c-0.921,0.694-1.96,1.226-3.122,1.59
	c-1.162,0.364-2.319,0.547-3.462,0.547c-1.482,0-2.837-0.295-4.068-0.886c-1.231-0.591-2.29-1.379-3.181-2.363
	c-0.891-0.985-1.581-2.092-2.068-3.323c-0.488-1.231-0.734-2.481-0.734-3.756H100.382z"/>
<path style="fill:#0066FF;" d="M119.745,22.751c0-0.975,0.271-1.841,0.817-2.584c0.542-0.748,1.3-1.334,2.265-1.757
	c0.965-0.423,2.068-0.635,3.309-0.635c0.581,0,1.133,0.049,1.645,0.143c0.517,0.094,0.96,0.236,1.335,0.423v-0.448
	c0-0.67-0.202-1.162-0.606-1.487c-0.404-0.325-1.054-0.482-1.955-0.482c-0.827,0-1.601,0.138-2.324,0.409
	c-0.433,0.162-0.882,0.374-1.34,0.63c-0.507,0.281-1.147,0.094-1.389-0.433l-0.704-1.506c-0.222-0.473-0.039-1.039,0.419-1.285
	c0.753-0.404,1.532-0.724,2.339-0.95c1.098-0.31,2.275-0.463,3.531-0.463c2.344,0,4.161,0.517,5.447,1.551s1.926,2.57,1.926,4.603
	v2.801c0,0.492,0.074,0.837,0.227,1.029c0.059,0.079,0.138,0.143,0.236,0.192c0.325,0.177,0.552,0.478,0.552,0.847v2.993
	c0,0.478-0.345,0.896-0.818,0.97c-0.138,0.02-0.276,0.039-0.404,0.059c-0.384,0.049-0.729,0.069-1.029,0.069
	c-0.955,0-1.684-0.172-2.181-0.522c-0.497-0.345-0.823-0.856-0.97-1.536l-0.113-0.537c-0.655,0.847-1.418,1.487-2.28,1.93
	c-0.862,0.443-1.783,0.66-2.758,0.66c-0.975,0-1.857-0.202-2.645-0.611c-0.788-0.404-1.408-0.965-1.856-1.674
	c-0.448-0.709-0.675-1.507-0.675-2.393V22.751z M128.412,23.066c0.207-0.143,0.374-0.295,0.507-0.468
	c0.133-0.167,0.197-0.34,0.197-0.517v-1.039c-0.3-0.108-0.645-0.197-1.029-0.266c-0.384-0.069-0.729-0.108-1.029-0.108
	c-0.64,0-1.177,0.153-1.62,0.453c-0.443,0.3-0.66,0.684-0.66,1.142c0,0.251,0.074,0.473,0.227,0.679
	c0.148,0.202,0.355,0.364,0.621,0.478c0.261,0.113,0.561,0.172,0.901,0.172c0.32,0,0.65-0.049,1-0.148
	c0.345-0.098,0.64-0.226,0.886-0.384V23.066z"/>
<path style="fill:#0066FF;" d="M146.973,12.058h-0.182c-0.881,0-1.719,0.266-2.507,0.802c-0.788,0.537-1.443,1.3-1.97,2.294v-1.999
	c0-0.34-0.276-0.62-0.621-0.62h-3.654c-0.345,0-0.62,0.281-0.62,0.62v13.366c0,0.345,0.276,0.62,0.62,0.62h4.102
	c0.345,0,0.625-0.276,0.625-0.62V18.36c0.409-0.522,1.039-0.896,1.881-1.122c0.679-0.182,1.413-0.29,2.206-0.325
	c0.34-0.015,0.611-0.286,0.611-0.62v-3.741C147.466,12.28,147.244,12.058,146.973,12.058z"/>
<path style="fill:#0066FF;" d="M155.428,27.423c-1.295,0-2.447-0.197-3.462-0.596c-1.014-0.399-1.862-0.94-2.546-1.625
	c-0.684-0.684-1.206-1.467-1.561-2.358c-0.355-0.886-0.537-1.821-0.537-2.801c0-1.398,0.31-2.688,0.931-3.855
	c0.621-1.172,1.527-2.112,2.728-2.821c1.202-0.709,2.684-1.063,4.447-1.063c1.763,0,3.245,0.35,4.447,1.053
	c1.202,0.704,2.113,1.625,2.728,2.772c0.621,1.147,0.931,2.393,0.931,3.741c0,0.276-0.015,0.561-0.044,0.847c0,0,0,0.005,0,0.01
	c-0.044,0.428-0.409,0.753-0.842,0.753h-9.642c0.039,0.497,0.182,0.906,0.438,1.216c0.251,0.31,0.571,0.537,0.955,0.679
	c0.384,0.143,0.783,0.212,1.197,0.212c0.581,0,1.133-0.133,1.645-0.394c0.33-0.167,0.591-0.379,0.778-0.63
	c0.202-0.276,0.566-0.374,0.896-0.281l2.797,0.797c0.571,0.163,0.818,0.856,0.458,1.329c-0.291,0.384-0.63,0.738-1.009,1.063
	c-0.704,0.601-1.536,1.073-2.492,1.423c-0.955,0.349-2.034,0.522-3.235,0.522L155.428,27.423z M152.897,18.276h4.895
	c-0.054-0.458-0.192-0.847-0.409-1.162c-0.217-0.315-0.497-0.566-0.842-0.738c-0.35-0.177-0.744-0.266-1.197-0.266
	s-0.847,0.089-1.197,0.266c-0.35,0.177-0.63,0.423-0.842,0.738C153.089,17.429,152.956,17.818,152.897,18.276z"/>
</svg>
