<svg width="900" height="300" viewBox="0 0 900 300" fill="none" xmlns="http://www.w3.org/2000/svg">
<g clip-path="url(#clip0_668_46821)">
<rect width="900" height="300" fill="white"/>
<path d="M193.031 158.239C193.885 158.401 194.763 158.678 195.571 158.978C194.763 158.655 193.885 158.424 193.031 158.239Z" fill="#ED1EFF"/>
<path d="M205.266 94.0621L205.22 94.0159C205.035 93.8313 204.851 93.6236 204.643 93.439C204.643 93.439 204.643 93.3928 204.574 93.3698C203.766 92.7005 202.704 92.2852 201.549 92.2852C198.917 92.2852 196.816 94.4082 196.816 97.039V97.5236C196.886 98.3544 196.886 99.2313 196.886 100.085C196.886 127.639 174.561 149.977 146.995 149.977C119.43 149.977 97.0818 127.639 97.0818 100.085C97.0818 99.2544 97.0818 98.4467 97.1511 97.639C97.1511 97.4775 97.1972 97.3159 97.1972 97.1544C97.1972 97.1082 97.1972 97.0852 97.1972 97.039C97.1972 94.4082 95.0733 92.2852 92.4414 92.2852C91.3101 92.2852 90.2712 92.7005 89.4401 93.3467C89.4401 93.3467 89.4401 93.3467 89.3939 93.3467C89.1631 93.6005 88.9091 93.8313 88.6782 94.1082C74.7569 108.601 66.2148 128.285 66.2148 149.977C66.2148 194.585 102.392 230.747 146.995 230.747C191.599 230.747 227.776 194.585 227.776 149.977C227.776 128.239 219.211 108.554 205.266 94.039V94.0621ZM197.094 194.054C187.582 198.462 176.269 194.354 171.837 184.847C167.404 175.316 171.537 164.008 181.048 159.577C183.634 158.377 186.381 157.801 189.059 157.801C190.398 157.801 191.737 157.962 193.03 158.239C193.884 158.401 194.762 158.677 195.57 158.977C197.001 159.485 198.34 160.154 199.61 161.031C200.049 161.285 200.464 161.585 200.857 161.931C201.18 162.162 201.48 162.416 201.78 162.739C201.965 162.877 202.15 163.039 202.311 163.224C202.473 163.385 202.634 163.547 202.773 163.708C203.258 164.193 203.696 164.701 204.135 165.254C204.966 166.339 205.705 167.539 206.305 168.831C210.738 178.339 206.628 189.67 197.094 194.101V194.054Z" fill="#0066FF"/>
<path d="M177.862 100.108C177.862 117.162 164.057 130.985 146.996 130.985C129.934 130.985 116.105 117.162 116.105 100.108C116.105 83.5849 129.103 70.0849 145.403 69.2542C145.934 69.208 146.488 69.208 146.996 69.208C147.503 69.208 148.058 69.208 148.589 69.2542C164.911 70.0619 177.862 83.5849 177.862 100.108Z" fill="#FFC700"/>
<path d="M197.092 194.055C187.58 198.462 176.267 194.355 171.835 184.847C167.402 175.316 171.535 164.008 181.046 159.578C183.632 158.378 186.379 157.801 189.057 157.801C190.397 157.801 191.736 157.962 193.028 158.239C193.883 158.401 194.76 158.678 195.568 158.978C196.999 159.485 198.338 160.155 199.608 161.032C200.047 161.285 200.462 161.585 200.855 161.932C201.178 162.162 201.478 162.416 201.778 162.739C201.963 162.878 202.148 163.039 202.309 163.224C202.471 163.385 202.632 163.547 202.771 163.708C203.256 164.193 203.694 164.701 204.133 165.255C204.964 166.339 205.703 167.539 206.303 168.832C210.736 178.339 206.626 189.67 197.092 194.101V194.055Z" fill="#FFD0EC"/>
<path d="M329.45 178.685V191.885C329.45 194.423 327.373 196.5 324.833 196.5H267.301C264.761 196.5 262.684 194.423 262.684 191.885V107.446C262.684 104.908 264.761 102.831 267.301 102.831H323.633C326.172 102.831 328.25 104.908 328.25 107.446V120.646C328.25 123.185 326.172 125.262 323.633 125.262H288.402V138.462H317.815C320.354 138.462 322.432 140.539 322.432 143.077V154.685C322.432 157.223 320.354 159.3 317.815 159.3H288.402V174.07H324.81C327.35 174.07 329.427 176.146 329.427 178.685H329.45Z" fill="#0066FF"/>
<path d="M444.675 196.5H428.838C426.298 196.5 424.22 194.423 424.22 191.885V158.4C424.22 155.054 423.528 152.631 422.165 151.131C420.803 149.631 419.141 148.869 417.225 148.869C415.309 148.869 413.185 149.769 410.899 151.569C408.614 153.369 406.951 155.677 405.889 158.516V191.862C405.889 194.4 403.812 196.477 401.272 196.477H385.434C382.895 196.477 380.817 194.4 380.817 191.862V158.377C380.817 155.031 380.125 152.608 378.762 151.108C377.4 149.608 375.761 148.846 373.822 148.846C371.883 148.846 369.782 149.723 367.496 151.477C365.21 153.231 363.548 155.469 362.486 158.216V191.862C362.486 194.4 360.408 196.477 357.869 196.477H342.031C339.492 196.477 337.414 194.4 337.414 191.862V132.623C337.414 130.085 339.492 128.008 342.031 128.008H355.352C357.892 128.008 359.97 130.085 359.97 132.623V138.369C362.44 134.654 365.811 131.816 370.128 129.877C374.445 127.939 379.547 126.969 385.434 126.969C391.322 126.969 395.454 128.192 398.363 130.592C401.272 133.016 403.188 135.739 404.158 138.762C406.628 135.046 409.999 132.139 414.316 130.062C418.633 127.985 423.458 126.946 428.838 126.946C433.409 126.946 437.056 127.777 439.781 129.416C442.505 131.054 444.56 133.177 445.922 135.762C447.284 138.346 448.184 141.069 448.623 143.862C449.062 146.677 449.269 149.239 449.269 151.592V191.862C449.269 194.4 447.191 196.477 444.652 196.477L444.675 196.5Z" fill="#0066FF"/>
<path d="M493.298 197.815C487.133 197.815 481.685 196.869 476.929 194.953C472.173 193.061 468.202 190.43 464.993 187.107C461.784 183.784 459.36 180 457.744 175.753C456.105 171.507 455.297 167.053 455.297 162.392C455.297 157.73 456.105 153.253 457.744 148.961C459.36 144.669 461.784 140.884 464.993 137.607C468.202 134.33 472.196 131.723 476.929 129.83C481.685 127.938 487.133 126.969 493.298 126.969C499.462 126.969 505.026 127.915 509.735 129.83C514.445 131.723 518.393 134.33 521.602 137.607C524.811 140.884 527.235 144.669 528.851 148.961C530.49 153.253 531.298 157.73 531.298 162.392C531.298 167.053 530.49 171.507 528.851 175.753C527.212 180 524.811 183.784 521.602 187.107C518.393 190.43 514.422 193.061 509.735 194.953C505.026 196.846 499.554 197.815 493.298 197.815ZM481.039 162.392C481.039 165.346 481.57 167.907 482.632 170.053C483.694 172.2 485.148 173.861 486.995 174.992C488.842 176.123 490.943 176.7 493.321 176.7C495.699 176.7 497.8 176.123 499.647 174.992C501.493 173.861 502.948 172.2 504.01 170.053C505.072 167.907 505.603 165.346 505.603 162.392C505.603 159.438 505.072 156.876 504.01 154.73C502.948 152.584 501.493 150.923 499.647 149.792C497.8 148.661 495.699 148.084 493.321 148.084C490.943 148.084 488.842 148.661 486.995 149.792C485.148 150.923 483.694 152.584 482.632 154.73C481.57 156.876 481.039 159.438 481.039 162.392Z" fill="#0066FF"/>
<path d="M536.722 148.754C536.722 143.031 537.807 137.423 539.954 131.931C542.101 126.438 545.241 121.454 549.396 116.954C553.529 112.477 558.562 108.877 564.495 106.2C570.428 103.523 577.146 102.185 584.604 102.185C593.584 102.185 601.411 104.054 608.083 107.792C613.323 110.723 617.502 114.392 620.642 118.823C622.073 120.854 621.496 123.692 619.464 125.146L607.713 133.5C605.636 134.977 602.68 134.608 601.226 132.531C600.395 131.354 599.448 130.338 598.363 129.508C596.216 127.846 593.884 126.669 591.368 126C588.851 125.331 586.427 125.008 584.049 125.008C580.356 125.008 577.17 125.723 574.492 127.177C571.813 128.631 569.62 130.546 567.889 132.923C566.18 135.3 564.887 137.931 564.056 140.838C563.225 143.746 562.81 146.654 562.81 149.538C562.81 152.792 563.294 155.908 564.264 158.908C565.234 161.908 566.642 164.561 568.489 166.892C570.336 169.223 572.598 171.046 575.276 172.362C577.955 173.677 580.979 174.346 584.303 174.346C586.681 174.346 589.105 173.977 591.553 173.215C594.023 172.477 596.262 171.254 598.271 169.592C599.264 168.785 600.141 167.815 600.903 166.731C602.288 164.723 604.966 164.123 607.067 165.369L620.157 173.192C622.42 174.554 623.066 177.508 621.658 179.723C619.88 182.492 617.525 184.985 614.639 187.154C610.322 190.408 605.451 192.9 600.002 194.608C594.554 196.315 589.129 197.169 583.772 197.169C576.823 197.169 570.474 195.785 564.703 193.015C558.931 190.246 553.967 186.554 549.789 181.938C545.61 177.323 542.378 172.131 540.092 166.361C537.807 160.592 536.652 154.731 536.652 148.754H536.722Z" fill="#0066FF"/>
<path d="M627.5 175.915C627.5 171.346 628.77 167.284 631.332 163.8C633.872 160.292 637.427 157.546 641.952 155.561C646.477 153.577 651.649 152.584 657.467 152.584C660.191 152.584 662.777 152.815 665.178 153.253C667.602 153.692 669.679 154.361 671.434 155.238V153.138C671.434 150 670.487 147.692 668.594 146.169C666.701 144.646 663.654 143.907 659.429 143.907C655.55 143.907 651.926 144.553 648.532 145.823C646.5 146.584 644.399 147.577 642.252 148.777C639.874 150.092 636.873 149.215 635.742 146.746L632.441 139.684C631.402 137.469 632.256 134.815 634.403 133.661C637.935 131.769 641.583 130.269 645.369 129.207C650.517 127.753 656.035 127.038 661.922 127.038C672.912 127.038 681.431 129.461 687.456 134.307C693.482 139.153 696.483 146.353 696.483 155.884V169.015C696.483 171.323 696.829 172.938 697.545 173.838C697.822 174.207 698.192 174.507 698.653 174.738C700.177 175.569 701.239 176.977 701.239 178.707V192.738C701.239 194.977 699.623 196.938 697.407 197.284C696.76 197.377 696.114 197.469 695.513 197.561C693.713 197.792 692.097 197.884 690.688 197.884C686.21 197.884 682.793 197.077 680.461 195.438C678.129 193.823 676.605 191.423 675.913 188.238L675.382 185.723C672.311 189.692 668.733 192.692 664.693 194.769C660.653 196.846 656.335 197.861 651.764 197.861C647.193 197.861 643.06 196.915 639.367 195C635.673 193.107 632.764 190.477 630.663 187.153C628.562 183.83 627.5 180.092 627.5 175.938V175.915ZM668.133 177.392C669.102 176.723 669.887 176.007 670.511 175.2C671.134 174.415 671.434 173.607 671.434 172.777V167.907C670.026 167.4 668.41 166.984 666.609 166.661C664.808 166.338 663.192 166.153 661.784 166.153C658.783 166.153 656.266 166.869 654.188 168.277C652.11 169.684 651.095 171.484 651.095 173.63C651.095 174.807 651.441 175.846 652.157 176.815C652.849 177.761 653.819 178.523 655.066 179.053C656.289 179.584 657.697 179.861 659.29 179.861C660.791 179.861 662.338 179.63 663.977 179.169C665.593 178.707 666.978 178.107 668.133 177.369V177.392Z" fill="#0066FF"/>
<path d="M755.148 125.792H754.293C750.161 125.792 746.236 127.038 742.542 129.554C738.848 132.069 735.778 135.646 733.308 140.307V130.938C733.308 129.346 732.015 128.03 730.399 128.03H713.268C711.652 128.03 710.359 129.346 710.359 130.938V193.592C710.359 195.207 711.652 196.5 713.268 196.5H732.5C734.116 196.5 735.432 195.207 735.432 193.592V155.33C737.348 152.884 740.303 151.13 744.251 150.069C747.437 149.215 750.877 148.707 754.594 148.546C756.187 148.477 757.456 147.207 757.456 145.638V128.1C757.456 126.83 756.417 125.792 755.148 125.792Z" fill="#0066FF"/>
<path d="M794.786 197.816C788.714 197.816 783.312 196.892 778.556 195.023C773.8 193.154 769.829 190.616 766.62 187.408C763.411 184.2 760.964 180.531 759.302 176.354C757.639 172.2 756.785 167.816 756.785 163.223C756.785 156.669 758.24 150.623 761.149 145.154C764.057 139.662 768.305 135.254 773.939 131.931C779.572 128.608 786.521 126.946 794.786 126.946C803.051 126.946 810 128.585 815.633 131.885C821.266 135.185 825.537 139.5 828.423 144.877C831.332 150.254 832.787 156.092 832.787 162.416C832.787 163.708 832.717 165.046 832.579 166.385C832.579 166.385 832.579 166.408 832.579 166.431C832.371 168.439 830.663 169.962 828.631 169.962H783.427C783.612 172.292 784.281 174.208 785.482 175.662C786.659 177.116 788.16 178.177 789.961 178.846C791.762 179.516 793.632 179.839 795.571 179.839C798.295 179.839 800.881 179.216 803.282 177.992C804.829 177.208 806.052 176.216 806.93 175.039C807.876 173.746 809.585 173.285 811.131 173.723L824.245 177.462C826.923 178.223 828.077 181.477 826.392 183.692C825.03 185.492 823.437 187.154 821.659 188.677C818.357 191.492 814.456 193.708 809.977 195.346C805.498 196.985 800.442 197.792 794.809 197.792L794.786 197.816ZM782.919 154.939H805.868C805.614 152.792 804.967 150.969 803.951 149.492C802.936 148.016 801.62 146.839 800.004 146.031C798.364 145.2 796.517 144.785 794.393 144.785C792.269 144.785 790.422 145.2 788.783 146.031C787.144 146.862 785.828 148.016 784.836 149.492C783.82 150.969 783.196 152.792 782.919 154.939Z" fill="#0066FF"/>
</g>
<defs>
<clipPath id="clip0_668_46821">
<rect width="900" height="300" fill="white"/>
</clipPath>
</defs>
</svg>
