<svg width="9" height="14" viewBox="0 0 9 14" fill="none" xmlns="http://www.w3.org/2000/svg">
<path d="M5.81665 7.07049L0.866649 2.12049C0.684491 1.93189 0.583697 1.67929 0.585975 1.41709C0.588254 1.1549 0.693423 0.904083 0.878831 0.718675C1.06424 0.533266 1.31505 0.428097 1.57725 0.425819C1.83944 0.423541 2.09205 0.524335 2.28065 0.706493L7.93765 6.36349C8.12512 6.55102 8.23044 6.80533 8.23044 7.07049C8.23044 7.33566 8.12512 7.58997 7.93765 7.77749L2.28065 13.4345C2.09205 13.6167 1.83944 13.7174 1.57725 13.7152C1.31505 13.7129 1.06424 13.6077 0.878831 13.4223C0.693423 13.2369 0.588254 12.9861 0.585975 12.7239C0.583697 12.4617 0.684491 12.2091 0.866649 12.0205L5.81665 7.07049Z" fill="#002761"/>
</svg>
