<svg width="24" height="25" viewBox="0 0 24 25" fill="none" xmlns="http://www.w3.org/2000/svg">
<path d="M16.2969 13L16.2969 19" stroke="#0066FF" stroke-width="2.5" stroke-linecap="round"/>
<path d="M19.6016 16L13.0016 16" stroke="#0066FF" stroke-width="2.5" stroke-linecap="round"/>
<path fill-rule="evenodd" clip-rule="evenodd" d="M7.92283 11.9898C7.78916 11.9903 7.65695 12.0175 7.534 12.07C6.4921 12.4805 5.59785 13.195 4.96756 14.1206C4.33728 15.0463 4.00014 16.1402 4 17.26V19C4 19.7956 4.31607 20.5587 4.87868 21.1213C5.44129 21.6839 6.20435 22 7 22H12.7263L12.7339 20H7C6.73478 20 6.48043 19.8946 6.29289 19.7071C6.10536 19.5196 6 19.2652 6 19V17.26C5.99997 16.5415 6.21618 15.8397 6.6205 15.2458C7.02483 14.6519 7.59854 14.1934 8.267 13.93C8.39268 13.8845 8.50796 13.8142 8.60602 13.7234C8.70408 13.6325 8.78293 13.523 8.83792 13.4011C8.8929 13.2793 8.92291 13.1477 8.92615 13.014C8.9294 12.8804 8.90582 12.7475 8.85681 12.6231C8.8078 12.4988 8.73436 12.3855 8.64082 12.29C8.54728 12.1945 8.43555 12.1188 8.31223 12.0672C8.18891 12.0156 8.0565 11.9893 7.92283 11.9898ZM13.8284 3.17157C13.0783 2.42143 12.0609 2 11 2C9.93913 2 8.92172 2.42143 8.17157 3.17157C7.42143 3.92172 7 4.93913 7 6V8C7 9.06087 7.42143 10.0783 8.17157 10.8284C8.92172 11.5786 9.93913 12 11 12C12.0609 12 13.0783 11.5786 13.8284 10.8284C14.5786 10.0783 15 9.06087 15 8V6C15 4.93913 14.5786 3.92172 13.8284 3.17157ZM9.58579 4.58579C9.96086 4.21071 10.4696 4 11 4C11.5304 4 12.0391 4.21071 12.4142 4.58579C12.7893 4.96086 13 5.46957 13 6V8C13 8.53043 12.7893 9.03914 12.4142 9.41421C12.0391 9.78929 11.5304 10 11 10C10.4696 10 9.96086 9.78929 9.58579 9.41421C9.21071 9.03914 9 8.53043 9 8V6C9 5.46957 9.21071 4.96086 9.58579 4.58579Z" fill="#0066FF"/>
</svg>
