<svg width="24" height="25" viewBox="0 0 24 25" fill="none" xmlns="http://www.w3.org/2000/svg">
<path d="M8.534 12.57C8.65695 12.5175 8.78916 12.4903 8.92283 12.4898C9.0565 12.4893 9.18891 12.5156 9.31223 12.5672C9.43555 12.6188 9.54728 12.6945 9.64082 12.79C9.73436 12.8855 9.8078 12.9988 9.85681 13.1231C9.90582 13.2475 9.9294 13.3804 9.92615 13.514C9.92291 13.6477 9.8929 13.7793 9.83792 13.9011C9.78293 14.023 9.70408 14.1325 9.60602 14.2234C9.50796 14.3142 9.39268 14.3845 9.267 14.43C8.59854 14.6934 8.02483 15.1519 7.6205 15.7458C7.21618 16.3397 6.99997 17.0415 7 17.76V19.5C7 19.7652 7.10536 20.0196 7.29289 20.2071C7.48043 20.3946 7.73478 20.5 8 20.5H16C16.2652 20.5 16.5196 20.3946 16.7071 20.2071C16.8946 20.0196 17 19.7652 17 19.5V17.853C17.0001 17.1115 16.7749 16.3874 16.3541 15.7768C15.9334 15.1662 15.337 14.6979 14.644 14.434C14.5175 14.3901 14.4012 14.3213 14.3018 14.2316C14.2024 14.1419 14.1221 14.0332 14.0655 13.9119C14.009 13.7905 13.9773 13.6591 13.9725 13.5253C13.9677 13.3916 13.9897 13.2582 14.0374 13.1331C14.0851 13.008 14.1574 12.8938 14.25 12.7972C14.3427 12.7006 14.4538 12.6235 14.5767 12.5706C14.6997 12.5177 14.832 12.4901 14.9659 12.4893C15.0998 12.4885 15.2324 12.5146 15.356 12.566C16.4276 12.9742 17.3499 13.6983 18.0006 14.6425C18.6514 15.5867 18.9999 16.7063 19 17.853V19.5C19 20.2956 18.6839 21.0587 18.1213 21.6213C17.5587 22.1839 16.7956 22.5 16 22.5H8C7.20435 22.5 6.44129 22.1839 5.87868 21.6213C5.31607 21.0587 5 20.2956 5 19.5V17.76C5.00014 16.6402 5.33728 15.5463 5.96756 14.6206C6.59785 13.695 7.4921 12.9805 8.534 12.57ZM12 2.5C13.0609 2.5 14.0783 2.92143 14.8284 3.67157C15.5786 4.42172 16 5.43913 16 6.5V8.5C16 9.56087 15.5786 10.5783 14.8284 11.3284C14.0783 12.0786 13.0609 12.5 12 12.5C10.9391 12.5 9.92172 12.0786 9.17157 11.3284C8.42143 10.5783 8 9.56087 8 8.5V6.5C8 5.43913 8.42143 4.42172 9.17157 3.67157C9.92172 2.92143 10.9391 2.5 12 2.5V2.5ZM12 4.5C11.4696 4.5 10.9609 4.71071 10.5858 5.08579C10.2107 5.46086 10 5.96957 10 6.5V8.5C10 9.03043 10.2107 9.53914 10.5858 9.91421C10.9609 10.2893 11.4696 10.5 12 10.5C12.5304 10.5 13.0391 10.2893 13.4142 9.91421C13.7893 9.53914 14 9.03043 14 8.5V6.5C14 5.96957 13.7893 5.46086 13.4142 5.08579C13.0391 4.71071 12.5304 4.5 12 4.5Z" fill="#0066FF"/>
</svg>
