<svg width="54" height="54" viewBox="0 0 54 54" fill="none" xmlns="http://www.w3.org/2000/svg">
<path d="M48 10.6667H37.3333V5.33333C37.3333 2.4 34.9333 0 32 0H21.3333C18.4 0 16 2.4 16 5.33333V10.6667H5.33333C2.4 10.6667 0 13.0667 0 16V48C0 50.9333 2.4 53.3333 5.33333 53.3333H48C50.9333 53.3333 53.3333 50.9333 53.3333 48V16C53.3333 13.0667 50.9333 10.6667 48 10.6667ZM21.3333 5.33333H32V10.6667H21.3333V5.33333ZM48 48H5.33333V16H48V48Z" fill="#FFC700"/>
<path d="M29.3333 21.332H24V29.332H16V34.6654H24V42.6654H29.3333V34.6654H37.3333V29.332H29.3333V21.332Z" fill="#FFC700"/>
</svg>
