<svg width="14" height="21" viewBox="0 0 14 21" fill="none" xmlns="http://www.w3.org/2000/svg">
<path d="M3.534 10.57C3.65695 10.5175 3.78916 10.4903 3.92283 10.4898C4.0565 10.4893 4.18891 10.5156 4.31223 10.5672C4.43555 10.6188 4.54728 10.6945 4.64082 10.79C4.73436 10.8855 4.8078 10.9988 4.85681 11.1231C4.90582 11.2475 4.9294 11.3804 4.92615 11.514C4.92291 11.6477 4.8929 11.7793 4.83792 11.9011C4.78293 12.023 4.70408 12.1325 4.60602 12.2234C4.50796 12.3142 4.39268 12.3845 4.267 12.43C3.59854 12.6934 3.02483 13.1519 2.6205 13.7458C2.21618 14.3397 1.99997 15.0415 2 15.76V17.5C2 17.7652 2.10536 18.0196 2.29289 18.2071C2.48043 18.3946 2.73478 18.5 3 18.5H11C11.2652 18.5 11.5196 18.3946 11.7071 18.2071C11.8946 18.0196 12 17.7652 12 17.5V15.853C12.0001 15.1115 11.7749 14.3874 11.3541 13.7768C10.9334 13.1662 10.337 12.6979 9.644 12.434C9.51754 12.3901 9.40118 12.3213 9.30181 12.2316C9.20244 12.1419 9.12209 12.0332 9.06553 11.9119C9.00896 11.7905 8.97732 11.6591 8.97249 11.5253C8.96766 11.3916 8.98974 11.2582 9.03742 11.1331C9.08509 11.008 9.1574 10.8938 9.25004 10.7972C9.34268 10.7006 9.45378 10.6235 9.57675 10.5706C9.69971 10.5177 9.83205 10.4901 9.9659 10.4893C10.0998 10.4885 10.2324 10.5146 10.356 10.566C11.4276 10.9742 12.3499 11.6983 13.0006 12.6425C13.6514 13.5867 13.9999 14.7063 14 15.853V17.5C14 18.2956 13.6839 19.0587 13.1213 19.6213C12.5587 20.1839 11.7956 20.5 11 20.5H3C2.20435 20.5 1.44129 20.1839 0.87868 19.6213C0.31607 19.0587 0 18.2956 0 17.5L0 15.76C0.000137601 14.6402 0.337277 13.5463 0.967561 12.6206C1.59785 11.695 2.4921 10.9805 3.534 10.57ZM7 0.5C8.06087 0.5 9.07828 0.921427 9.82843 1.67157C10.5786 2.42172 11 3.43913 11 4.5V6.5C11 7.56087 10.5786 8.57828 9.82843 9.32843C9.07828 10.0786 8.06087 10.5 7 10.5C5.93913 10.5 4.92172 10.0786 4.17157 9.32843C3.42143 8.57828 3 7.56087 3 6.5V4.5C3 3.43913 3.42143 2.42172 4.17157 1.67157C4.92172 0.921427 5.93913 0.5 7 0.5V0.5ZM7 2.5C6.46957 2.5 5.96086 2.71071 5.58579 3.08579C5.21071 3.46086 5 3.96957 5 4.5V6.5C5 7.03043 5.21071 7.53914 5.58579 7.91421C5.96086 8.28929 6.46957 8.5 7 8.5C7.53043 8.5 8.03914 8.28929 8.41421 7.91421C8.78929 7.53914 9 7.03043 9 6.5V4.5C9 3.96957 8.78929 3.46086 8.41421 3.08579C8.03914 2.71071 7.53043 2.5 7 2.5Z" fill="#0066FF"/>
</svg>
