<svg width="24" height="25" viewBox="0 0 24 25" fill="none" xmlns="http://www.w3.org/2000/svg">
<path d="M19 3.71289H16.5V3.21289C16.5 2.66289 16.05 2.21289 15.5 2.21289H8.5C7.95 2.21289 7.5 2.66289 7.5 3.21289V3.71289H5C4.45 3.71289 4 4.16289 4 4.71289V21.7129C4 22.2629 4.45 22.7129 5 22.7129H19C19.55 22.7129 20 22.2629 20 21.7129V4.71289C20 4.16289 19.55 3.71289 19 3.71289ZM8.5 3.21289H15.5V5.21289H8.5V3.21289ZM9.85 17.5629L7.85 19.5629C7.75 19.6629 7.62 19.7129 7.5 19.7129C7.38 19.7129 7.24 19.6629 7.15 19.5629L6.15 18.5629C5.95 18.3629 5.95 18.0529 6.15 17.8529C6.35 17.6529 6.66 17.6529 6.86 17.8529L7.51 18.5029L9.16 16.8529C9.36 16.6529 9.67 16.6529 9.87 16.8529C10.07 17.0529 10.07 17.3629 9.87 17.5629H9.85ZM9.85 13.0629L7.85 15.0629C7.75 15.1629 7.62 15.2129 7.5 15.2129C7.38 15.2129 7.24 15.1629 7.15 15.0629L6.15 14.0629C5.95 13.8629 5.95 13.5529 6.15 13.3529C6.35 13.1529 6.66 13.1529 6.86 13.3529L7.51 14.0029L9.16 12.3529C9.36 12.1529 9.67 12.1529 9.87 12.3529C10.07 12.5529 10.07 12.8629 9.87 13.0629H9.85ZM9.85 8.56289L7.85 10.5629C7.75 10.6629 7.62 10.7129 7.5 10.7129C7.38 10.7129 7.24 10.6629 7.15 10.5629L6.15 9.56289C5.95 9.36289 5.95 9.05289 6.15 8.85289C6.35 8.65289 6.66 8.65289 6.86 8.85289L7.51 9.50289L9.16 7.85289C9.36 7.65289 9.67 7.65289 9.87 7.85289C10.07 8.05289 10.07 8.36289 9.87 8.56289H9.85ZM17.5 18.7129H12.5C12.22 18.7129 12 18.4929 12 18.2129C12 17.9329 12.22 17.7129 12.5 17.7129H17.5C17.78 17.7129 18 17.9329 18 18.2129C18 18.4929 17.78 18.7129 17.5 18.7129ZM17.5 14.2129H12.5C12.22 14.2129 12 13.9929 12 13.7129C12 13.4329 12.22 13.2129 12.5 13.2129H17.5C17.78 13.2129 18 13.4329 18 13.7129C18 13.9929 17.78 14.2129 17.5 14.2129ZM17.5 9.71289H12.5C12.22 9.71289 12 9.49289 12 9.21289C12 8.93289 12.22 8.71289 12.5 8.71289H17.5C17.78 8.71289 18 8.93289 18 9.21289C18 9.49289 17.78 9.71289 17.5 9.71289Z" fill="#0066FF"/>
</svg>
