<svg width="24" height="24" viewBox="0 0 24 24" fill="none" xmlns="http://www.w3.org/2000/svg">
<path d="M19 3.25H16.5V2.75C16.5 2.2 16.05 1.75 15.5 1.75H8.5C7.95 1.75 7.5 2.2 7.5 2.75V3.25H5C4.45 3.25 4 3.7 4 4.25V21.25C4 21.8 4.45 22.25 5 22.25H19C19.55 22.25 20 21.8 20 21.25V4.25C20 3.7 19.55 3.25 19 3.25ZM8.5 2.75H15.5V4.75H8.5V2.75ZM9.85 17.1L7.85 19.1C7.75 19.2 7.62 19.25 7.5 19.25C7.38 19.25 7.24 19.2 7.15 19.1L6.15 18.1C5.95 17.9 5.95 17.59 6.15 17.39C6.35 17.19 6.66 17.19 6.86 17.39L7.51 18.04L9.16 16.39C9.36 16.19 9.67 16.19 9.87 16.39C10.07 16.59 10.07 16.9 9.87 17.1H9.85ZM9.85 12.6L7.85 14.6C7.75 14.7 7.62 14.75 7.5 14.75C7.38 14.75 7.24 14.7 7.15 14.6L6.15 13.6C5.95 13.4 5.95 13.09 6.15 12.89C6.35 12.69 6.66 12.69 6.86 12.89L7.51 13.54L9.16 11.89C9.36 11.69 9.67 11.69 9.87 11.89C10.07 12.09 10.07 12.4 9.87 12.6H9.85ZM9.85 8.1L7.85 10.1C7.75 10.2 7.62 10.25 7.5 10.25C7.38 10.25 7.24 10.2 7.15 10.1L6.15 9.1C5.95 8.9 5.95 8.59 6.15 8.39C6.35 8.19 6.66 8.19 6.86 8.39L7.51 9.04L9.16 7.39C9.36 7.19 9.67 7.19 9.87 7.39C10.07 7.59 10.07 7.9 9.87 8.1H9.85ZM17.5 18.25H12.5C12.22 18.25 12 18.03 12 17.75C12 17.47 12.22 17.25 12.5 17.25H17.5C17.78 17.25 18 17.47 18 17.75C18 18.03 17.78 18.25 17.5 18.25ZM17.5 13.75H12.5C12.22 13.75 12 13.53 12 13.25C12 12.97 12.22 12.75 12.5 12.75H17.5C17.78 12.75 18 12.97 18 13.25C18 13.53 17.78 13.75 17.5 13.75ZM17.5 9.25H12.5C12.22 9.25 12 9.03 12 8.75C12 8.47 12.22 8.25 12.5 8.25H17.5C17.78 8.25 18 8.47 18 8.75C18 9.03 17.78 9.25 17.5 9.25Z" fill="white"/>
</svg>
