<svg width="25" height="24" viewBox="0 0 25 24" fill="none" xmlns="http://www.w3.org/2000/svg">
<path d="M13.8127 12.0705L8.86274 7.12049C8.68059 6.93189 8.57979 6.67929 8.58207 6.41709C8.58435 6.1549 8.68952 5.90408 8.87492 5.71867C9.06033 5.53327 9.31115 5.4281 9.57334 5.42582C9.83554 5.42354 10.0881 5.52434 10.2767 5.70649L15.9337 11.3635C16.1212 11.551 16.2265 11.8053 16.2265 12.0705C16.2265 12.3357 16.1212 12.59 15.9337 12.7775L10.2767 18.4345C10.0881 18.6167 9.83554 18.7174 9.57334 18.7152C9.31115 18.7129 9.06033 18.6077 8.87492 18.4223C8.68952 18.2369 8.58435 17.9861 8.58207 17.7239C8.57979 17.4617 8.68059 17.2091 8.86274 17.0205L13.8127 12.0705Z" fill="#0F62FE"/>
</svg>
