<svg width="24" height="24" viewBox="0 0 24 24" fill="none" xmlns="http://www.w3.org/2000/svg">
<path d="M7 10.5H4C3.44772 10.5 3 10.9477 3 11.5V17.5C3 18.0523 3.44772 18.5 4 18.5H7C7.55228 18.5 8 18.0523 8 17.5V11.5C8 10.9477 7.55228 10.5 7 10.5Z" fill="white"/>
<path d="M13.3789 2.5H10.6289C10.0766 2.5 9.62891 2.94772 9.62891 3.5V17.5C9.62891 18.0523 10.0766 18.5 10.6289 18.5H13.3789C13.9312 18.5 14.3789 18.0523 14.3789 17.5V3.5C14.3789 2.94772 13.9312 2.5 13.3789 2.5Z" fill="white"/>
<path d="M20 6.5H17C16.4477 6.5 16 6.94772 16 7.5V17.5C16 18.0523 16.4477 18.5 17 18.5H20C20.5523 18.5 21 18.0523 21 17.5V7.5C21 6.94772 20.5523 6.5 20 6.5Z" fill="white"/>
<path d="M3.5 20.5C3.5 20.78 3.72 21 4 21H20C20.28 21 20.5 20.78 20.5 20.5C20.5 20.22 20.28 20 20 20H4C3.72 20 3.5 20.22 3.5 20.5Z" fill="white"/>
</svg>
