<svg width="24" height="24" viewBox="0 0 24 24" fill="none" xmlns="http://www.w3.org/2000/svg">
<path d="M20.7782 5.76953C20.2382 4.46953 18.6382 3.01953 17.2882 3.01953C16.8182 3.01953 16.3982 3.18953 16.0782 3.50953L4.30815 15.2695C4.17815 15.3995 4.08815 15.5595 4.04815 15.7295L3.04815 19.7295C2.95815 20.0695 3.05815 20.4295 3.30815 20.6795C3.49815 20.8695 3.75815 20.9695 4.01815 20.9695C4.09815 20.9695 4.17815 20.9695 4.25815 20.9395L8.25815 19.9395C8.43815 19.8995 8.59815 19.8095 8.71815 19.6795L20.4782 7.91953C20.7282 7.66953 21.2582 6.95953 20.7682 5.76953H20.7782ZM18.3781 9.32953C18.2781 9.42953 18.1482 9.47953 18.0282 9.47953C17.9082 9.47953 17.7682 9.42953 17.6782 9.32953L16.4982 8.14953C16.4782 8.21953 16.4382 8.27953 16.3882 8.32953L7.38815 17.3295C7.33815 17.3795 7.27815 17.4195 7.20815 17.4395L8.38815 18.6195C8.58815 18.8195 8.58815 19.1295 8.38815 19.3295C8.28815 19.4295 8.15815 19.4795 8.03815 19.4795C7.91815 19.4795 7.77815 19.4295 7.68815 19.3295L4.68815 16.3295C4.48815 16.1295 4.48815 15.8195 4.68815 15.6195C4.88815 15.4195 5.19815 15.4195 5.39815 15.6195L6.57815 16.7995C6.59815 16.7295 6.63815 16.6695 6.68815 16.6195L15.6682 7.61953C15.7182 7.56953 15.7782 7.52953 15.8482 7.50953L14.6682 6.32953C14.4682 6.12953 14.4682 5.81953 14.6682 5.61953C14.8682 5.41953 15.1782 5.41953 15.3782 5.61953L18.3781 8.61953C18.5781 8.81953 18.5781 9.12953 18.3781 9.32953Z" fill="white"/>
</svg>
