<svg width="24" height="25" viewBox="0 0 24 25" fill="none" xmlns="http://www.w3.org/2000/svg">
<path d="M20.7782 6.23242C20.2382 4.93242 18.6382 3.48242 17.2882 3.48242C16.8182 3.48242 16.3982 3.65242 16.0782 3.97242L4.30815 15.7324C4.17815 15.8624 4.08815 16.0224 4.04815 16.1924L3.04815 20.1924C2.95815 20.5324 3.05815 20.8924 3.30815 21.1424C3.49815 21.3324 3.75815 21.4324 4.01815 21.4324C4.09815 21.4324 4.17815 21.4324 4.25815 21.4024L8.25815 20.4024C8.43815 20.3624 8.59815 20.2724 8.71815 20.1424L20.4782 8.38242C20.7282 8.13242 21.2582 7.42242 20.7682 6.23242H20.7782ZM18.3781 9.79242C18.2781 9.89242 18.1482 9.94242 18.0282 9.94242C17.9082 9.94242 17.7682 9.89242 17.6782 9.79242L16.4982 8.61242C16.4782 8.68242 16.4382 8.74242 16.3882 8.79242L7.38815 17.7924C7.33815 17.8424 7.27815 17.8824 7.20815 17.9024L8.38815 19.0824C8.58815 19.2824 8.58815 19.5924 8.38815 19.7924C8.28815 19.8924 8.15815 19.9424 8.03815 19.9424C7.91815 19.9424 7.77815 19.8924 7.68815 19.7924L4.68815 16.7924C4.48815 16.5924 4.48815 16.2824 4.68815 16.0824C4.88815 15.8824 5.19815 15.8824 5.39815 16.0824L6.57815 17.2624C6.59815 17.1924 6.63815 17.1324 6.68815 17.0824L15.6682 8.08242C15.7182 8.03242 15.7782 7.99242 15.8482 7.97242L14.6682 6.79242C14.4682 6.59242 14.4682 6.28242 14.6682 6.08242C14.8682 5.88242 15.1782 5.88242 15.3782 6.08242L18.3781 9.08242C18.5781 9.28242 18.5781 9.59242 18.3781 9.79242Z" fill="#0066FF"/>
</svg>
