<svg width="557" height="185" viewBox="0 0 557 185" fill="none" xmlns="http://www.w3.org/2000/svg">
<path d="M120.65 97.582C121.176 97.6816 121.716 97.8524 122.213 98.0374C121.716 97.8382 121.176 97.6959 120.65 97.582Z" fill="#ED1EFF"/>
<path d="M128.182 58.0059L128.153 57.9775C128.039 57.8636 127.926 57.7355 127.798 57.6217C127.798 57.6217 127.798 57.5932 127.755 57.579C127.258 57.1663 126.604 56.9102 125.894 56.9102C124.274 56.9102 122.981 58.2194 122.981 59.8417V60.1405C123.024 60.6528 123.024 61.1936 123.024 61.7202C123.024 78.7117 109.283 92.4871 92.3175 92.4871C75.3518 92.4871 61.5973 78.7117 61.5973 61.7202C61.5973 61.2078 61.5973 60.7098 61.6399 60.2117C61.6399 60.1121 61.6683 60.0125 61.6683 59.9128C61.6683 59.8844 61.6683 59.8702 61.6683 59.8417C61.6683 58.2194 60.3611 56.9102 58.7412 56.9102C58.045 56.9102 57.4056 57.1663 56.894 57.5648C56.894 57.5648 56.894 57.5648 56.8656 57.5648C56.7235 57.7213 56.5672 57.8636 56.4251 58.0344C47.857 66.9713 42.5996 79.1102 42.5996 92.4871C42.5996 119.995 64.8654 142.295 92.3175 142.295C119.77 142.295 142.035 119.995 142.035 92.4871C142.035 79.0817 136.764 66.9428 128.182 57.9917V58.0059ZM123.151 119.668C117.297 122.386 110.335 119.853 107.607 113.99C104.878 108.112 107.422 101.139 113.276 98.4071C114.868 97.6671 116.558 97.3113 118.207 97.3113C119.031 97.3113 119.855 97.4109 120.651 97.5817C121.176 97.6813 121.716 97.8521 122.214 98.0371C123.095 98.3502 123.919 98.7628 124.7 99.3036C124.97 99.4602 125.226 99.6452 125.468 99.8586C125.667 100.001 125.851 100.157 126.036 100.357C126.15 100.442 126.263 100.542 126.363 100.656C126.462 100.755 126.562 100.855 126.647 100.954C126.945 101.253 127.215 101.566 127.485 101.908C127.997 102.577 128.451 103.317 128.821 104.114C131.549 109.977 129.02 116.964 123.151 119.696V119.668Z" fill="#270DB9"/>
<path d="M111.314 61.7347C111.314 72.2512 102.817 80.7755 92.3166 80.7755C81.816 80.7755 73.3047 72.2512 73.3047 61.7347C73.3047 51.2182 81.3045 43.2205 91.3361 42.7081C91.663 42.6797 92.004 42.6797 92.3166 42.6797C92.6292 42.6797 92.9702 42.6797 93.297 42.7081C103.343 43.2062 111.314 51.5455 111.314 61.7347Z" fill="#FFC945"/>
<path d="M123.152 119.669C117.298 122.387 110.335 119.854 107.607 113.991C104.879 108.114 107.423 101.141 113.277 98.4083C114.868 97.6683 116.559 97.3125 118.207 97.3125C119.032 97.3125 119.856 97.4121 120.651 97.5829C121.177 97.6825 121.717 97.8533 122.214 98.0383C123.095 98.3513 123.919 98.764 124.701 99.3048C124.971 99.4613 125.227 99.6463 125.468 99.8598C125.667 100.002 125.852 100.159 126.037 100.358C126.15 100.443 126.264 100.543 126.363 100.657C126.463 100.756 126.562 100.856 126.648 100.956C126.946 101.254 127.216 101.568 127.486 101.909C127.997 102.578 128.452 103.318 128.822 104.115C131.55 109.978 129.021 116.965 123.152 119.698V119.669Z" fill="#FFB8BD"/>
<path d="M204.612 110.191V118.331C204.612 119.896 203.334 121.177 201.771 121.177H166.361C164.798 121.177 163.52 119.896 163.52 118.331V66.2602C163.52 64.6948 164.798 63.4141 166.361 63.4141H201.032C202.595 63.4141 203.874 64.6948 203.874 66.2602V74.4002C203.874 75.9656 202.595 77.2464 201.032 77.2464H179.349V85.3864H197.451C199.014 85.3864 200.293 86.6671 200.293 88.2325V95.3906C200.293 96.956 199.014 98.2368 197.451 98.2368H179.349V107.344H201.756C203.319 107.344 204.598 108.625 204.598 110.191H204.612Z" fill="#270DB9"/>
<path d="M275.532 121.177H265.784C264.221 121.177 262.942 119.896 262.942 118.331V97.6817C262.942 95.6182 262.516 94.124 261.678 93.199C260.839 92.274 259.816 91.8044 258.637 91.8044C257.457 91.8044 256.15 92.3594 254.743 93.4694C253.337 94.5794 252.314 96.0025 251.66 97.7529V118.316C251.66 119.882 250.381 121.162 248.818 121.162H239.071C237.508 121.162 236.229 119.882 236.229 118.316V97.6675C236.229 95.604 235.803 94.1098 234.964 93.1848C234.126 92.2598 233.117 91.7902 231.924 91.7902C230.73 91.7902 229.437 92.3309 228.03 93.4125C226.623 94.494 225.6 95.8744 224.947 97.5678V118.316C224.947 119.882 223.668 121.162 222.105 121.162H212.357C210.794 121.162 209.516 119.882 209.516 118.316V81.7859C209.516 80.2205 210.794 78.9398 212.357 78.9398H220.556C222.119 78.9398 223.398 80.2205 223.398 81.7859V85.3294C224.918 83.0382 226.993 81.2878 229.65 80.0925C232.307 78.8971 235.447 78.2994 239.071 78.2994C242.694 78.2994 245.238 79.0536 247.028 80.5336C248.818 82.0279 249.998 83.7071 250.594 85.5713C252.115 83.2802 254.189 81.4871 256.846 80.2063C259.504 78.9255 262.473 78.2852 265.784 78.2852C268.597 78.2852 270.842 78.7975 272.519 79.8079C274.196 80.8182 275.46 82.1275 276.299 83.7213C277.137 85.3152 277.691 86.9944 277.961 88.7163C278.231 90.4525 278.359 92.0321 278.359 93.4836V118.316C278.359 119.882 277.08 121.162 275.517 121.162L275.532 121.177Z" fill="#270DB9"/>
<path d="M305.455 121.989C301.661 121.989 298.308 121.406 295.38 120.225C292.453 119.058 290.009 117.435 288.034 115.386C286.059 113.337 284.567 111.003 283.573 108.385C282.564 105.766 282.066 103.02 282.066 100.145C282.066 97.2704 282.564 94.5096 283.573 91.8627C284.567 89.2158 286.059 86.8819 288.034 84.8612C290.009 82.8404 292.468 81.2323 295.38 80.0654C298.308 78.8985 301.661 78.3008 305.455 78.3008C309.249 78.3008 312.673 78.8842 315.572 80.0654C318.47 81.2465 320.9 82.8404 322.875 84.8612C324.85 86.8819 326.342 89.2158 327.337 91.8627C328.346 94.5096 328.843 97.2704 328.843 100.145C328.843 103.02 328.346 105.766 327.337 108.385C326.328 111.003 324.85 113.337 322.875 115.386C320.9 117.435 318.456 119.058 315.572 120.225C312.673 121.392 309.305 121.989 305.455 121.989ZM297.91 100.145C297.91 101.967 298.236 103.546 298.89 104.87C299.544 106.193 300.439 107.218 301.576 107.915C302.712 108.612 304.005 108.968 305.469 108.968C306.932 108.968 308.226 108.612 309.362 107.915C310.499 107.218 311.394 106.193 312.048 104.87C312.701 103.546 313.028 101.967 313.028 100.145C313.028 98.3235 312.701 96.7439 312.048 95.4204C311.394 94.0969 310.499 93.0723 309.362 92.375C308.226 91.6777 306.932 91.3219 305.469 91.3219C304.005 91.3219 302.712 91.6777 301.576 92.375C300.439 93.0723 299.544 94.0969 298.89 95.4204C298.236 96.7439 297.91 98.3235 297.91 100.145Z" fill="#270DB9"/>
<path d="M332.183 91.7333C332.183 88.2041 332.851 84.746 334.173 81.3591C335.494 77.9722 337.426 74.8983 339.984 72.1233C342.528 69.3626 345.625 67.1426 349.277 65.4918C352.929 63.841 357.064 63.0156 361.653 63.0156C367.18 63.0156 371.997 64.1683 376.104 66.4737C379.329 68.281 381.901 70.5437 383.834 73.276C384.715 74.5283 384.359 76.2787 383.109 77.1752L375.876 82.3268C374.598 83.2375 372.779 83.0099 371.884 81.7291C371.372 81.0033 370.79 80.3772 370.122 79.8649C368.8 78.8402 367.365 78.1145 365.816 77.7018C364.268 77.2891 362.776 77.0899 361.312 77.0899C359.039 77.0899 357.078 77.531 355.429 78.4276C353.781 79.3241 352.431 80.5052 351.366 81.971C350.3 83.4368 349.518 85.0591 349.007 86.8522C348.495 88.6452 348.24 90.4383 348.24 92.2172C348.24 94.2237 348.538 96.1449 349.135 97.9949C349.732 99.8449 350.598 101.481 351.735 102.919C352.872 104.356 354.264 105.48 355.913 106.291C357.561 107.103 359.422 107.515 361.468 107.515C362.932 107.515 364.424 107.288 365.93 106.818C367.45 106.363 368.829 105.608 370.065 104.584C370.676 104.086 371.216 103.488 371.685 102.819C372.537 101.581 374.186 101.211 375.479 101.979L383.535 106.804C384.928 107.643 385.326 109.465 384.459 110.831C383.365 112.539 381.915 114.076 380.139 115.413C377.482 117.42 374.484 118.957 371.131 120.01C367.777 121.063 364.438 121.589 361.142 121.589C356.865 121.589 352.957 120.736 349.405 119.028C345.852 117.32 342.798 115.043 340.226 112.197C337.654 109.351 335.665 106.149 334.258 102.591C332.851 99.0337 332.141 95.4191 332.141 91.7333H332.183Z" fill="#270DB9"/>
<path d="M388.053 108.485C388.053 105.667 388.834 103.162 390.411 101.013C391.974 98.8503 394.163 97.1568 396.948 95.933C399.733 94.7091 402.916 94.0972 406.496 94.0972C408.173 94.0972 409.764 94.2395 411.242 94.5099C412.734 94.7803 414.013 95.193 415.093 95.7337V94.4388C415.093 92.5034 414.51 91.0803 413.345 90.1411C412.18 89.2018 410.304 88.7464 407.704 88.7464C405.317 88.7464 403.086 89.1449 400.997 89.9276C399.747 90.3972 398.454 91.0091 397.132 91.7491C395.669 92.5603 393.822 92.0195 393.125 90.4968L391.093 86.1422C390.454 84.7761 390.98 83.1395 392.301 82.428C394.475 81.2611 396.72 80.3361 399.051 79.6814C402.219 78.7849 405.615 78.3438 409.239 78.3438C416.002 78.3438 421.245 79.838 424.954 82.8264C428.663 85.8149 430.51 90.2549 430.51 96.1322V104.23C430.51 105.653 430.723 106.649 431.163 107.204C431.334 107.431 431.561 107.616 431.845 107.759C432.783 108.271 433.437 109.139 433.437 110.206V118.859C433.437 120.239 432.442 121.449 431.078 121.662C430.68 121.719 430.282 121.776 429.913 121.833C428.805 121.975 427.81 122.032 426.943 122.032C424.187 122.032 422.084 121.534 420.649 120.524C419.213 119.528 418.276 118.048 417.849 116.084L417.523 114.533C415.633 116.98 413.43 118.83 410.944 120.111C408.457 121.392 405.8 122.018 402.987 122.018C400.173 122.018 397.63 121.435 395.356 120.253C393.083 119.086 391.292 117.464 389.999 115.415C388.706 113.366 388.053 111.06 388.053 108.499V108.485ZM413.061 109.395C413.658 108.983 414.141 108.541 414.524 108.043C414.908 107.56 415.093 107.061 415.093 106.549V103.546C414.226 103.233 413.231 102.977 412.123 102.778C411.015 102.579 410.02 102.465 409.153 102.465C407.306 102.465 405.757 102.906 404.479 103.774C403.2 104.642 402.575 105.752 402.575 107.076C402.575 107.801 402.788 108.442 403.228 109.04C403.654 109.623 404.251 110.093 405.019 110.42C405.772 110.747 406.638 110.918 407.619 110.918C408.542 110.918 409.494 110.776 410.503 110.491C411.498 110.206 412.35 109.836 413.061 109.381V109.395Z" fill="#270DB9"/>
<path d="M466.617 77.5742H466.091C463.547 77.5742 461.132 78.3427 458.858 79.8938C456.585 81.445 454.695 83.6508 453.175 86.5254V80.7477C453.175 79.7658 452.379 78.9546 451.384 78.9546H440.841C439.847 78.9546 439.051 79.7658 439.051 80.7477V119.384C439.051 120.38 439.847 121.177 440.841 121.177H452.677C453.672 121.177 454.482 120.38 454.482 119.384V95.7896C455.661 94.2811 457.48 93.1996 459.91 92.545C461.871 92.0184 463.988 91.7054 466.276 91.6058C467.256 91.5631 468.038 90.7804 468.038 89.8127V78.9973C468.038 78.2146 467.398 77.5742 466.617 77.5742Z" fill="#270DB9"/>
<path d="M491.013 121.988C487.276 121.988 483.951 121.419 481.024 120.266C478.097 119.113 475.653 117.548 473.678 115.57C471.703 113.592 470.197 111.329 469.174 108.753C468.151 106.192 467.625 103.488 467.625 100.656C467.625 96.6144 468.52 92.8859 470.311 89.5132C472.101 86.1263 474.715 83.4082 478.182 81.359C481.649 79.3098 485.926 78.2852 491.013 78.2852C496.1 78.2852 500.377 79.2955 503.844 81.3305C507.311 83.3655 509.94 86.0267 511.716 89.3425C513.506 92.6582 514.402 96.2586 514.402 100.158C514.402 100.955 514.359 101.78 514.274 102.606C514.274 102.606 514.274 102.62 514.274 102.634C514.146 103.872 513.094 104.811 511.844 104.811H484.022C484.136 106.249 484.548 107.43 485.287 108.326C486.012 109.223 486.935 109.877 488.044 110.29C489.152 110.703 490.303 110.902 491.496 110.902C493.173 110.902 494.765 110.518 496.242 109.764C497.194 109.28 497.947 108.668 498.487 107.942C499.07 107.145 500.121 106.861 501.073 107.131L509.144 109.436C510.792 109.906 511.503 111.912 510.466 113.279C509.627 114.389 508.647 115.413 507.553 116.352C505.521 118.089 503.12 119.455 500.363 120.465C497.606 121.461 494.495 121.974 491.028 121.974L491.013 121.988ZM483.71 95.5471H497.834C497.677 94.2236 497.28 93.0994 496.654 92.1886C496.029 91.2779 495.219 90.5521 494.225 90.054C493.216 89.5417 492.079 89.2855 490.772 89.2855C489.465 89.2855 488.328 89.5417 487.319 90.054C486.31 90.5663 485.5 91.2779 484.889 92.1886C484.264 93.0994 483.88 94.2236 483.71 95.5471Z" fill="#270DB9"/>
</svg>
