<svg width="24" height="24" viewBox="0 0 24 24" fill="#0066FF" hover="#000000" xmlns="http://www.w3.org/2000/svg">
<path d="M21.72 6.31C20.24 4.78 18.6 4 16.83 4C15.31 4 13.75 4.56 12.08 5.7C10.77 4.57 9.35 4 7.83 4C6.1 4 4.32 4.72 2.39 6.21C2.14 6.4 2 6.69 2 7V19C2 19.38 2.22 19.73 2.56 19.9C2.7 19.97 2.85 20 3 20C3.22 20 3.43 19.93 3.61 19.79C5.16 18.6 6.59 17.99 7.85 17.99C9.11 17.99 10.19 18.54 11.28 19.68C11.47 19.88 11.73 19.99 12 19.99C12.27 19.99 12.53 19.88 12.72 19.68C13.82 18.54 14.95 17.98 16.17 17.98C17.43 17.98 18.85 18.58 20.39 19.78C20.57 19.92 20.78 19.99 21 19.99C21.15 19.99 21.3 19.96 21.44 19.89C21.78 19.72 22 19.37 22 18.99V7C22 6.74 21.9 6.49 21.72 6.31ZM9 14.5H5C4.72 14.5 4.5 14.28 4.5 14C4.5 13.72 4.72 13.5 5 13.5H9C9.28 13.5 9.5 13.72 9.5 14C9.5 14.28 9.28 14.5 9 14.5ZM9 11.5H5C4.72 11.5 4.5 11.28 4.5 11C4.5 10.72 4.72 10.5 5 10.5H9C9.28 10.5 9.5 10.72 9.5 11C9.5 11.28 9.28 11.5 9 11.5ZM9 8.5H5C4.72 8.5 4.5 8.28 4.5 8C4.5 7.72 4.72 7.5 5 7.5H9C9.28 7.5 9.5 7.72 9.5 8C9.5 8.28 9.28 8.5 9 8.5ZM12.5 18C12.5 18.28 12.28 18.5 12 18.5C11.72 18.5 11.5 18.28 11.5 18V7C11.5 6.72 11.72 6.5 12 6.5C12.28 6.5 12.5 6.72 12.5 7V18ZM19 14.5H15C14.72 14.5 14.5 14.28 14.5 14C14.5 13.72 14.72 13.5 15 13.5H19C19.28 13.5 19.5 13.72 19.5 14C19.5 14.28 19.28 14.5 19 14.5ZM19 11.5H15C14.72 11.5 14.5 11.28 14.5 11C14.5 10.72 14.72 10.5 15 10.5H19C19.28 10.5 19.5 10.72 19.5 11C19.5 11.28 19.28 11.5 19 11.5ZM19 8.5H15C14.72 8.5 14.5 8.28 14.5 8C14.5 7.72 14.72 7.5 15 7.5H19C19.28 7.5 19.5 7.72 19.5 8C19.5 8.28 19.28 8.5 19 8.5Z" />
</svg>
