<svg width="34" height="34" viewBox="0 0 34 34" fill="none" xmlns="http://www.w3.org/2000/svg">
<path d="M6.71429 8H15.2857C15.7404 8 16.1764 8.18964 16.4979 8.52721C16.8194 8.86477 17 9.32261 17 9.8C17 10.2774 16.8194 10.7352 16.4979 11.0728C16.1764 11.4104 15.7404 11.6 15.2857 11.6H6.71429C6.25963 11.6 5.82359 11.4104 5.5021 11.0728C5.18061 10.7352 5 10.2774 5 9.8C5 9.32261 5.18061 8.86477 5.5021 8.52721C5.82359 8.18964 6.25963 8 6.71429 8V8ZM18.7143 22.4H27.2857C27.7404 22.4 28.1764 22.5896 28.4979 22.9272C28.8194 23.2648 29 23.7226 29 24.2C29 24.6774 28.8194 25.1352 28.4979 25.4728C28.1764 25.8104 27.7404 26 27.2857 26H18.7143C18.2596 26 17.8236 25.8104 17.5021 25.4728C17.1806 25.1352 17 24.6774 17 24.2C17 23.7226 17.1806 23.2648 17.5021 22.9272C17.8236 22.5896 18.2596 22.4 18.7143 22.4ZM6.71429 15.2H27.2857C27.7404 15.2 28.1764 15.3896 28.4979 15.7272C28.8194 16.0648 29 16.5226 29 17C29 17.4774 28.8194 17.9352 28.4979 18.2728C28.1764 18.6104 27.7404 18.8 27.2857 18.8H6.71429C6.25963 18.8 5.82359 18.6104 5.5021 18.2728C5.18061 17.9352 5 17.4774 5 17C5 16.5226 5.18061 16.0648 5.5021 15.7272C5.82359 15.3896 6.25963 15.2 6.71429 15.2Z" fill="white"/>
</svg>
