<svg width="104" height="104" viewBox="0 0 104 104" fill="none" xmlns="http://www.w3.org/2000/svg">
<path d="M0 6C0 2.68629 2.68629 0 6 0H104V104H6C2.68629 104 0 101.314 0 98V6Z" fill="#F0F1F3"/>
<rect x="16.5" y="16.5" width="71" height="71" rx="35.5" fill="#F2F4F8"/>
<path d="M48.534 52.07C48.6569 52.0175 48.7892 51.9903 48.9228 51.9898C49.0565 51.9893 49.1889 52.0156 49.3122 52.0672C49.4355 52.1188 49.5473 52.1945 49.6408 52.29C49.7344 52.3855 49.8078 52.4988 49.8568 52.6231C49.9058 52.7475 49.9294 52.8804 49.9262 53.014C49.9229 53.1477 49.8929 53.2793 49.8379 53.4011C49.7829 53.523 49.7041 53.6325 49.606 53.7234C49.508 53.8142 49.3927 53.8845 49.267 53.93C48.5985 54.1934 48.0248 54.6519 47.6205 55.2458C47.2162 55.8397 47 56.5415 47 57.26V59C47 59.2652 47.1054 59.5196 47.2929 59.7071C47.4804 59.8946 47.7348 60 48 60H56C56.2652 60 56.5196 59.8946 56.7071 59.7071C56.8946 59.5196 57 59.2652 57 59V57.353C57.0001 56.6115 56.7749 55.8874 56.3541 55.2768C55.9334 54.6662 55.337 54.1979 54.644 53.934C54.5175 53.8901 54.4012 53.8213 54.3018 53.7316C54.2024 53.6419 54.1221 53.5332 54.0655 53.4119C54.009 53.2905 53.9773 53.1591 53.9725 53.0253C53.9677 52.8916 53.9897 52.7582 54.0374 52.6331C54.0851 52.508 54.1574 52.3938 54.25 52.2972C54.3427 52.2006 54.4538 52.1235 54.5767 52.0706C54.6997 52.0177 54.832 51.9901 54.9659 51.9893C55.0998 51.9885 55.2324 52.0146 55.356 52.066C56.4276 52.4742 57.3499 53.1983 58.0006 54.1425C58.6514 55.0867 58.9999 56.2063 59 57.353V59C59 59.7956 58.6839 60.5587 58.1213 61.1213C57.5587 61.6839 56.7956 62 56 62H48C47.2044 62 46.4413 61.6839 45.8787 61.1213C45.3161 60.5587 45 59.7956 45 59V57.26C45.0001 56.1402 45.3373 55.0463 45.9676 54.1206C46.5978 53.195 47.4921 52.4805 48.534 52.07ZM52 42C53.0609 42 54.0783 42.4214 54.8284 43.1716C55.5786 43.9217 56 44.9391 56 46V48C56 49.0609 55.5786 50.0783 54.8284 50.8284C54.0783 51.5786 53.0609 52 52 52C50.9391 52 49.9217 51.5786 49.1716 50.8284C48.4214 50.0783 48 49.0609 48 48V46C48 44.9391 48.4214 43.9217 49.1716 43.1716C49.9217 42.4214 50.9391 42 52 42V42ZM52 44C51.4696 44 50.9609 44.2107 50.5858 44.5858C50.2107 44.9609 50 45.4696 50 46V48C50 48.5304 50.2107 49.0391 50.5858 49.4142C50.9609 49.7893 51.4696 50 52 50C52.5304 50 53.0391 49.7893 53.4142 49.4142C53.7893 49.0391 54 48.5304 54 48V46C54 45.4696 53.7893 44.9609 53.4142 44.5858C53.0391 44.2107 52.5304 44 52 44Z" fill="#878D96"/>
<rect x="16.5" y="16.5" width="71" height="71" rx="35.5" stroke="#CFCFCF"/>
</svg>
