<svg width="24" height="25" viewBox="0 0 24 25" fill="none" xmlns="http://www.w3.org/2000/svg">
<path d="M20.931 17.0437C21.211 18.8837 20.041 20.6137 18.271 21.0637C18.141 21.0937 18.031 21.1137 17.901 21.1337C17.771 21.1537 17.661 21.1737 17.531 21.1737C10.601 22.0237 4.21098 17.1937 3.17098 10.2437C3.15098 10.1337 3.14098 10.0137 3.13098 9.90369L3.11098 9.79369C3.06098 9.43369 3.03098 9.07369 3.04098 8.72369C3.16098 7.09369 4.39098 5.69369 6.08098 5.44369C6.66098 5.35369 7.25098 5.41369 7.78098 5.59369C8.01098 5.67369 8.23098 5.76369 8.42098 5.89369L9.60098 11.0137C9.27098 11.5137 8.80098 11.9237 8.27098 12.2037C8.81098 13.3037 9.60098 14.2637 10.521 15.0037C10.651 15.1137 10.801 15.2237 10.951 15.3337C11.821 15.9637 12.821 16.4337 13.881 16.7037C13.971 16.3237 14.131 15.9537 14.341 15.6337L19.741 16.1037H19.751L20.681 16.1937C20.791 16.4637 20.881 16.7437 20.921 17.0437H20.931Z" fill="#0066FF"/>
<path d="M20.3617 6.67289H17.7917V4.10289C17.7917 3.74289 17.5017 3.46289 17.1517 3.46289H15.8617C15.5017 3.46289 15.2217 3.75289 15.2217 4.10289V6.67289H12.6517C12.2917 6.67289 12.0117 6.96289 12.0117 7.31289V8.60289C12.0117 8.96289 12.3017 9.24289 12.6517 9.24289H15.2217V11.8129C15.2217 12.1729 15.5117 12.4529 15.8617 12.4529H17.1517C17.5117 12.4529 17.7917 12.1629 17.7917 11.8129V9.24289H20.3617C20.7217 9.24289 21.0017 8.95289 21.0017 8.60289V7.31289C21.0017 6.95289 20.7117 6.67289 20.3617 6.67289Z" fill="#0066FF"/>
</svg>
