<svg width="24" height="24" viewBox="0 0 24 24" fill="none" xmlns="http://www.w3.org/2000/svg">
<path d="M20.931 16.5798C21.211 18.4198 20.041 20.1498 18.271 20.5998C18.141 20.6298 18.031 20.6498 17.901 20.6698C17.771 20.6898 17.661 20.7098 17.531 20.7098C10.601 21.5598 4.21098 16.7298 3.17098 9.77983C3.15098 9.66983 3.14098 9.54983 3.13098 9.43983L3.11098 9.32983C3.06098 8.96983 3.03098 8.60983 3.04098 8.25983C3.16098 6.62983 4.39098 5.22983 6.08098 4.97983C6.66098 4.88983 7.25098 4.94983 7.78098 5.12983C8.01098 5.20983 8.23098 5.29983 8.42098 5.42983L9.60098 10.5498C9.27098 11.0498 8.80098 11.4598 8.27098 11.7398C8.81098 12.8398 9.60098 13.7998 10.521 14.5398C10.651 14.6498 10.801 14.7598 10.951 14.8698C11.821 15.4998 12.821 15.9698 13.881 16.2398C13.971 15.8598 14.131 15.4898 14.341 15.1698L19.741 15.6398H19.751L20.681 15.7298C20.791 15.9998 20.881 16.2798 20.921 16.5798H20.931Z" fill="white"/>
<path d="M17.2917 6.21V6.71H17.7917H20.3617C20.4407 6.71 20.5017 6.77122 20.5017 6.85V8.14C20.5017 8.21897 20.4405 8.28 20.3617 8.28H17.7917H17.2917V8.78V11.35C17.2917 11.429 17.2305 11.49 17.1517 11.49H15.8617C15.7828 11.49 15.7217 11.4288 15.7217 11.35V8.78V8.28H15.2217H12.6517C12.5728 8.28 12.5117 8.21878 12.5117 8.14V6.85C12.5117 6.77103 12.5729 6.71 12.6517 6.71H15.2217H15.7217V6.21V3.64C15.7217 3.56103 15.7829 3.5 15.8617 3.5H17.1517C17.2307 3.5 17.2917 3.56123 17.2917 3.64V6.21Z" fill="white" stroke="white"/>
</svg>
