<svg width="162" height="162" viewBox="0 0 162 162" fill="none" xmlns="http://www.w3.org/2000/svg">
<g id="Group">
<path id="Vector" d="M126.816 89.0312C127.671 89.1928 128.548 89.4697 129.356 89.7697C128.548 89.4466 127.671 89.2159 126.816 89.0312Z" fill="#ED1EFF"/>
<path id="Vector_2" d="M139.051 24.8541L139.005 24.8079C138.821 24.6233 138.636 24.4156 138.428 24.231C138.428 24.231 138.428 24.1848 138.359 24.1618C137.551 23.4925 136.489 23.0771 135.334 23.0771C132.703 23.0771 130.602 25.2002 130.602 27.831V28.3156C130.671 29.1464 130.671 30.0233 130.671 30.8771C130.671 58.431 108.346 80.7694 80.7805 80.7694C53.2149 80.7694 30.867 58.431 30.867 30.8771C30.867 30.0464 30.867 29.2387 30.9362 28.431C30.9362 28.2695 30.9824 28.1079 30.9824 27.9464C30.9824 27.9002 30.9824 27.8771 30.9824 27.831C30.9824 25.2002 28.8584 23.0771 26.2265 23.0771C25.0953 23.0771 24.0564 23.4925 23.2253 24.1387C23.2253 24.1387 23.2253 24.1387 23.1791 24.1387C22.9482 24.3925 22.6943 24.6233 22.4634 24.9002C8.54209 39.3925 0 59.0771 0 80.7694C0 125.377 36.1769 161.539 80.7805 161.539C125.384 161.539 161.561 125.377 161.561 80.7694C161.561 59.031 152.996 39.3464 139.051 24.831V24.8541ZM130.879 124.846C121.367 129.254 110.054 125.146 105.622 115.639C101.189 106.108 105.322 94.8002 114.833 90.3695C117.419 89.1695 120.166 88.5925 122.845 88.5925C124.184 88.5925 125.523 88.7541 126.815 89.031C127.67 89.1925 128.547 89.4695 129.355 89.7694C130.786 90.2771 132.125 90.9464 133.395 91.8233C133.834 92.0771 134.249 92.3771 134.642 92.7233C134.965 92.9541 135.265 93.2079 135.565 93.531C135.75 93.6694 135.935 93.831 136.096 94.0156C136.258 94.1772 136.42 94.3387 136.558 94.5002C137.043 94.9848 137.482 95.4925 137.92 96.0464C138.751 97.131 139.49 98.331 140.09 99.6233C144.523 109.131 140.414 120.462 130.879 124.893V124.846Z" fill="#0066FF"/>
<path id="Vector_3" d="M111.648 30.9C111.648 47.9538 97.8418 61.7769 80.7807 61.7769C63.7196 61.7769 49.8906 47.9538 49.8906 30.9C49.8906 14.3769 62.8885 0.876924 79.1877 0.0461549C79.7187 1.05741e-06 80.2728 0 80.7807 0C81.2886 0 81.8427 1.05741e-06 82.3737 0.0461549C98.696 0.853847 111.648 14.3769 111.648 30.9Z" fill="#FFC700"/>
<path id="Vector_4" d="M130.879 124.847C121.367 129.254 110.055 125.147 105.622 115.639C101.189 106.108 105.322 94.8005 114.834 90.3697C117.419 89.1697 120.167 88.5928 122.845 88.5928C124.184 88.5928 125.523 88.7543 126.816 89.0312C127.67 89.1928 128.547 89.4697 129.355 89.7697C130.786 90.2774 132.125 90.9466 133.395 91.8235C133.834 92.0774 134.249 92.3774 134.642 92.7235C134.965 92.9543 135.265 93.2082 135.565 93.5312C135.75 93.6697 135.935 93.8312 136.096 94.0159C136.258 94.1774 136.42 94.3389 136.558 94.5005C137.043 94.9851 137.482 95.4928 137.92 96.0466C138.751 97.1312 139.49 98.3313 140.09 99.6236C144.523 109.131 140.414 120.462 130.879 124.893V124.847Z" fill="#FFD0EC"/>
</g>
</svg>
